<svg width="61" height="56" viewBox="0 0 61 56" fill="none" xmlns="http://www.w3.org/2000/svg">
<path d="M19.8207 55.7628C19.5882 55.7628 19.3596 55.702 19.1578 55.5864C18.9559 55.4708 18.7878 55.3045 18.6701 55.1039C13.6829 46.6074 0.39321 28.5245 0.259519 28.3428C0.0696372 28.0847 -0.0210217 27.7669 0.00411346 27.4474C0.0292486 27.128 0.168499 26.8283 0.396412 26.6031L4.48157 22.5663C4.70351 22.347 4.9953 22.2124 5.30619 22.1859C5.61709 22.1595 5.92743 22.2428 6.18326 22.4214L19.5426 31.7499C28.4243 20.34 36.6781 12.4658 42.1031 7.82609C48.1839 2.62484 52.05 0.287662 52.2116 0.190262C52.419 0.0657781 52.6563 1.22575e-05 52.8982 1.7872e-08H59.5069C59.7774 -4.42451e-05 60.0415 0.0821306 60.2642 0.235629C60.487 0.389127 60.6578 0.606698 60.754 0.859494C60.8503 1.11229 60.8674 1.38837 60.8032 1.65113C60.7389 1.91389 60.5963 2.15091 60.3943 2.33078C50.5969 11.0567 40.4108 24.9211 33.5911 35.015C26.1777 45.987 21.0313 54.9991 20.9802 55.0888C20.8643 55.2922 20.697 55.4615 20.4951 55.5798C20.2931 55.6981 20.0636 55.7611 19.8295 55.7626L19.8207 55.7628Z" fill="url(#paint0_linear_1_195)"/>
<defs>
<linearGradient id="paint0_linear_1_195" x1="0" y1="0" x2="55.5516" y2="60.611" gradientUnits="userSpaceOnUse">
<stop stop-color="#E91E8C"/>
<stop offset="1" stop-color="#F5A623"/>
</linearGradient>
</defs>
</svg>
