<svg width="52" height="52" viewBox="0 0 52 52" fill="none" xmlns="http://www.w3.org/2000/svg">
<path d="M0 15.0433C0 6.73512 6.73511 0 15.0433 0H36.5337C44.8418 0 51.5769 6.73511 51.5769 15.0433V36.5337C51.5769 44.8418 44.8418 51.5769 36.5337 51.5769H15.0433C6.73512 51.5769 0 44.8418 0 36.5337V15.0433Z" fill="url(#paint0_linear_1_250)"/>
<path d="M21.3829 34.3847C23.4337 35.4367 25.7928 35.7216 28.0351 35.1882C30.2774 34.6547 32.2555 33.3379 33.6128 31.475C34.9701 29.6122 35.6175 27.3258 35.4382 25.0279C35.259 22.73 34.2648 20.5717 32.635 18.9419C31.0052 17.3121 28.8469 16.318 26.549 16.1387C24.2511 15.9594 21.9647 16.6068 20.1019 17.9641C18.239 19.3214 16.9222 21.2995 16.3888 23.5418C15.8553 25.7841 16.1402 28.1432 17.1923 30.194L15.0432 36.5337L21.3829 34.3847Z" stroke="white" stroke-width="2.14904" stroke-linecap="round" stroke-linejoin="round"/>
<defs>
<linearGradient id="paint0_linear_1_250" x1="0" y1="0" x2="51.5769" y2="51.5769" gradientUnits="userSpaceOnUse">
<stop stop-color="#E91E8C"/>
<stop offset="1" stop-color="#F5A623"/>
</linearGradient>
</defs>
</svg>
