<svg width="608" height="147" viewBox="0 0 608 147" fill="none" xmlns="http://www.w3.org/2000/svg">
<path d="M224.747 96.7369C223.442 96.7369 222.155 96.4371 220.991 95.8727C220.391 95.5729 219.721 95.4318 219.068 95.4318C218.416 95.4318 217.746 95.5905 217.146 95.8903C215.982 96.4723 214.677 96.7722 213.389 96.7722C211.238 96.7722 209.192 95.9785 207.605 94.5323C206.793 93.7915 205.735 93.3859 204.642 93.3859C204.395 93.3859 204.148 93.4036 203.901 93.4565C203.425 93.5447 202.931 93.5798 202.455 93.5798C199.474 93.5798 196.67 92.0103 195.136 89.4706C194.43 88.3242 193.231 87.5481 191.89 87.3894C188.363 86.9837 185.506 84.5147 184.589 81.0932C184.236 79.7881 183.301 78.7122 182.049 78.1831C178.786 76.8074 176.741 73.6329 176.829 70.0879C176.864 68.7476 176.264 67.4248 175.224 66.5783C172.472 64.3384 171.414 60.7053 172.49 57.3367C172.896 56.0492 172.702 54.6206 171.926 53.5271C169.915 50.5994 169.915 46.8251 171.908 43.8974C172.666 42.7863 172.861 41.3578 172.455 40.0704C171.361 36.7018 172.419 33.0686 175.153 30.8288C176.194 29.9822 176.793 28.6595 176.74 27.3191C176.635 23.7742 178.681 20.5994 181.926 19.2061C183.16 18.677 184.113 17.5837 184.448 16.2786C185.347 12.8571 188.204 10.3701 191.714 9.94687C193.054 9.78814 194.254 9.01223 194.959 7.84822C196.494 5.2909 199.298 3.72129 202.261 3.70365C202.737 3.70365 203.231 3.73883 203.707 3.82701C203.954 3.86229 204.201 3.89763 204.448 3.89763C205.541 3.89763 206.599 3.49193 207.411 2.73355C208.98 1.28735 211.044 0.47601 213.178 0.47601C214.483 0.47601 215.77 0.776031 216.934 1.3404C217.534 1.64023 218.204 1.78132 218.857 1.78132C219.509 1.78132 220.179 1.62257 220.779 1.32275C221.943 0.740741 223.248 0.440918 224.536 0.440918C226.687 0.440918 228.733 1.23439 230.321 2.68059C231.132 3.42133 232.19 3.82701 233.284 3.82701C233.53 3.82701 233.777 3.80952 234.024 3.75661C234.5 3.66843 234.994 3.63304 235.47 3.63304C238.451 3.63304 241.255 5.20262 242.79 7.74229C243.495 8.88867 244.694 9.66478 246.035 9.82351C249.562 10.2292 252.419 12.6982 253.336 16.1197C253.689 17.4248 254.624 18.5007 255.876 19.0298C259.139 20.4054 261.185 23.5802 261.097 27.1251C261.061 28.4655 261.661 29.7883 262.701 30.6348C265.453 32.8747 266.511 36.5078 265.435 39.8764C265.029 41.1639 265.223 42.5923 265.982 43.6857C267.992 46.6134 267.992 50.3878 265.999 53.3155C265.241 54.4266 265.047 55.855 265.453 57.1425C266.546 60.5111 265.488 64.1442 262.754 66.3841C261.714 67.2306 261.114 68.5536 261.149 69.894C261.255 73.4389 259.209 76.6135 255.964 78.0068C254.73 78.5359 253.777 79.6292 253.442 80.9343C252.543 84.3558 249.686 86.8427 246.176 87.266C244.835 87.4247 243.636 88.2006 242.931 89.3647C241.396 91.922 238.592 93.4916 235.629 93.5092C235.153 93.5092 234.659 93.474 234.183 93.3859C233.936 93.3506 233.689 93.3152 233.442 93.3152C232.349 93.3152 231.29 93.7209 230.479 94.4793C228.91 95.9255 226.846 96.7369 224.712 96.7369H224.747Z" fill="url(#paint0_linear_1_47)" stroke="#7A5C45" stroke-width="0.881831" stroke-miterlimit="10"/>
<path d="M202.56 107.936L196.952 121.763H194.465L188.857 107.936H191.643L195.717 117.989L199.792 107.936H202.578H202.56Z" fill="#7A5C45"/>
<path d="M211.714 118.06C211.714 119.4 211.326 120.388 210.532 121.058C209.739 121.728 208.61 122.063 207.146 122.063C206.335 122.063 205.629 121.922 204.994 121.64C204.359 121.358 203.813 120.97 203.372 120.458C202.931 119.947 202.578 119.365 202.349 118.659C202.119 117.954 201.996 117.213 201.996 116.42C201.996 115.45 202.137 114.638 202.437 113.933C202.737 113.245 203.125 112.681 203.601 112.222C204.077 111.763 204.624 111.428 205.224 111.181C205.823 110.952 206.423 110.811 207.023 110.758C207.746 110.705 208.363 110.758 208.927 110.899C209.492 111.04 209.95 111.252 210.338 111.552C210.726 111.834 211.008 112.187 211.202 112.61C211.396 113.033 211.502 113.492 211.502 113.986C211.502 114.268 211.485 114.55 211.432 114.815C211.379 115.079 211.291 115.326 211.149 115.555C211.008 115.784 210.814 115.996 210.567 116.208C210.321 116.419 210.003 116.596 209.597 116.772L205.135 118.677C205.594 119.382 206.229 119.735 207.04 119.735C207.64 119.735 208.134 119.612 208.522 119.347C208.91 119.082 209.121 118.642 209.121 118.042H211.714V118.06ZM204.589 116.437V116.666C204.589 116.666 204.589 116.807 204.606 116.896L208.275 115.308C208.486 115.22 208.663 115.114 208.804 114.991C208.945 114.867 209.015 114.673 209.015 114.427C209.015 114.003 208.839 113.668 208.486 113.404C208.134 113.139 207.728 113.016 207.252 113.016C206.934 113.016 206.617 113.086 206.299 113.21C205.982 113.333 205.7 113.527 205.435 113.809C205.171 114.074 204.977 114.427 204.818 114.867C204.659 115.308 204.589 115.837 204.589 116.455V116.437Z" fill="#7A5C45"/>
<path d="M223.742 122.874C223.46 123.421 223.125 123.915 222.772 124.373C222.419 124.832 221.978 125.238 221.502 125.573C221.026 125.908 220.462 126.172 219.844 126.366C219.227 126.56 218.522 126.648 217.728 126.648C217.164 126.648 216.617 126.578 216.052 126.419C215.488 126.278 214.994 126.031 214.553 125.714C214.112 125.396 213.742 125.008 213.478 124.532C213.213 124.056 213.072 123.509 213.072 122.874C213.072 122.081 213.301 121.41 213.76 120.881C214.218 120.352 214.818 119.964 215.576 119.752C214.906 119.312 214.359 118.747 213.971 118.024C213.583 117.301 213.372 116.507 213.372 115.643C213.372 114.973 213.495 114.338 213.742 113.756C213.989 113.157 214.324 112.645 214.765 112.204C215.206 111.763 215.717 111.41 216.317 111.163C216.917 110.899 217.569 110.775 218.257 110.775C218.945 110.775 219.597 110.899 220.197 111.163C220.797 111.428 221.308 111.763 221.749 112.204C222.19 112.645 222.525 113.174 222.772 113.756C223.019 114.356 223.142 114.973 223.142 115.643C223.142 116.313 223.019 116.948 222.772 117.548C222.525 118.148 222.172 118.659 221.749 119.1C221.308 119.541 220.797 119.894 220.197 120.141C219.597 120.388 218.963 120.529 218.257 120.529C217.975 120.529 217.657 120.529 217.322 120.582C216.97 120.617 216.635 120.687 216.317 120.811C216 120.934 215.735 121.093 215.523 121.322C215.312 121.534 215.206 121.834 215.206 122.222C215.206 122.557 215.277 122.839 215.435 123.103C215.576 123.368 215.77 123.58 216.035 123.756C216.282 123.932 216.582 124.073 216.917 124.179C217.252 124.285 217.604 124.32 217.992 124.32C218.433 124.32 218.839 124.25 219.262 124.127C219.668 123.985 220.056 123.809 220.409 123.597C220.761 123.368 221.097 123.104 221.379 122.804C221.661 122.486 221.925 122.169 222.137 121.834L223.795 122.892L223.742 122.874ZM218.239 113.139C217.851 113.139 217.481 113.209 217.181 113.35C216.881 113.491 216.617 113.686 216.423 113.915C216.211 114.144 216.07 114.426 215.947 114.726C215.841 115.026 215.788 115.343 215.788 115.678C215.788 116.014 215.841 116.331 215.947 116.631C216.052 116.931 216.211 117.195 216.423 117.442C216.617 117.671 216.881 117.865 217.181 118.006C217.481 118.148 217.851 118.218 218.239 118.218C218.627 118.218 218.98 118.148 219.28 118.006C219.58 117.865 219.844 117.671 220.038 117.442C220.232 117.213 220.391 116.931 220.497 116.631C220.603 116.331 220.656 116.014 220.656 115.678C220.656 115.343 220.603 115.044 220.497 114.726C220.391 114.426 220.232 114.162 220.038 113.915C219.844 113.668 219.58 113.491 219.28 113.35C218.98 113.209 218.627 113.139 218.239 113.139ZM222.578 111.058C222.19 111.128 221.837 111.058 221.502 110.828C221.167 110.599 220.973 110.317 220.903 109.929C220.832 109.541 220.903 109.171 221.114 108.853C221.343 108.536 221.643 108.324 222.031 108.254C222.419 108.183 222.772 108.254 223.089 108.483C223.425 108.694 223.619 108.994 223.707 109.382C223.777 109.77 223.707 110.123 223.477 110.458C223.248 110.793 222.948 110.987 222.56 111.075L222.578 111.058Z" fill="#7A5C45"/>
<path d="M230.003 110.793C230.832 110.793 231.59 110.934 232.278 111.217C232.966 111.481 233.566 111.887 234.059 112.381C234.553 112.874 234.941 113.474 235.206 114.162C235.488 114.85 235.629 115.608 235.629 116.437V121.799H233.142V119.982C233.019 120.246 232.825 120.529 232.596 120.776C232.366 121.04 232.102 121.252 231.82 121.446C231.537 121.64 231.202 121.799 230.85 121.904C230.497 122.01 230.127 122.081 229.721 122.081C228.963 122.081 228.257 121.94 227.604 121.675C226.969 121.411 226.405 121.023 225.947 120.529C225.488 120.035 225.135 119.435 224.871 118.747C224.606 118.042 224.483 117.283 224.483 116.437C224.483 115.643 224.606 114.903 224.871 114.232C225.135 113.562 225.506 112.945 225.982 112.451C226.458 111.94 227.04 111.552 227.728 111.252C228.416 110.97 229.174 110.811 230.021 110.811L230.003 110.793ZM230.003 119.594C230.479 119.594 230.903 119.506 231.291 119.329C231.679 119.153 231.996 118.924 232.278 118.624C232.56 118.342 232.772 117.989 232.913 117.619C233.054 117.231 233.142 116.825 233.142 116.419C233.142 115.467 232.86 114.709 232.278 114.127C231.696 113.545 230.938 113.262 230.003 113.262C229.492 113.262 229.068 113.351 228.698 113.527C228.327 113.703 228.028 113.933 227.799 114.232C227.552 114.532 227.375 114.867 227.269 115.255C227.164 115.643 227.093 116.031 227.093 116.419C227.093 116.807 227.164 117.213 227.269 117.583C227.375 117.954 227.569 118.307 227.799 118.606C228.028 118.906 228.327 119.135 228.698 119.329C229.068 119.523 229.509 119.612 230.003 119.612V119.594Z" fill="#7A5C45"/>
<path d="M243.989 110.793C244.536 110.793 245.047 110.882 245.541 111.076C246.035 111.27 246.476 111.534 246.864 111.904C247.252 112.275 247.551 112.733 247.763 113.28C247.992 113.827 248.098 114.479 248.098 115.22V121.781H245.629V115.661C245.629 115.22 245.559 114.85 245.417 114.515C245.276 114.179 245.1 113.915 244.871 113.686C244.641 113.456 244.377 113.298 244.059 113.174C243.76 113.068 243.442 112.998 243.107 112.998C242.754 112.998 242.402 113.068 242.049 113.209C241.696 113.351 241.396 113.562 241.132 113.844C240.867 114.127 240.656 114.479 240.497 114.885C240.338 115.291 240.25 115.767 240.25 116.278V121.746H237.763V111.058H240.25V113.262C240.655 112.469 241.185 111.851 241.855 111.41C242.507 110.97 243.23 110.74 243.989 110.74V110.793Z" fill="#7A5C45"/>
<path d="M179.668 134.462H186.035V137.76C185.911 138.306 185.664 138.818 185.329 139.329C184.994 139.823 184.571 140.264 184.06 140.652C183.548 141.04 182.966 141.34 182.296 141.569C181.626 141.798 180.903 141.922 180.109 141.922C179.262 141.922 178.433 141.781 177.622 141.481C176.811 141.181 176.088 140.74 175.453 140.141C174.818 139.541 174.289 138.8 173.901 137.901C173.513 137.001 173.301 135.943 173.301 134.709C173.301 133.739 173.442 132.804 173.742 131.94C174.024 131.075 174.465 130.317 175.012 129.647C175.576 128.994 176.264 128.465 177.111 128.077C177.957 127.689 178.91 127.495 180.003 127.495C180.797 127.495 181.555 127.601 182.296 127.83C183.019 128.042 183.672 128.359 184.218 128.782C184.765 129.206 185.206 129.735 185.541 130.37C185.876 131.005 186.035 131.728 186.035 132.539H183.019C183.019 132.151 182.931 131.798 182.772 131.481C182.613 131.163 182.384 130.917 182.102 130.705C181.82 130.493 181.485 130.335 181.097 130.229C180.709 130.123 180.303 130.07 179.844 130.07C179.21 130.07 178.628 130.176 178.151 130.405C177.658 130.634 177.252 130.934 176.934 131.34C176.617 131.746 176.352 132.222 176.194 132.786C176.035 133.35 175.947 133.985 175.947 134.691C175.947 135.573 176.053 136.313 176.282 136.931C176.511 137.548 176.811 138.042 177.199 138.412C177.587 138.783 178.01 139.047 178.504 139.223C178.998 139.4 179.509 139.47 180.038 139.47C180.867 139.47 181.59 139.312 182.225 138.977C182.86 138.641 183.266 138.165 183.425 137.53V136.825H179.668V134.462Z" fill="#7A5C45"/>
<path d="M198.31 130.952V141.622H195.841V139.435C195.418 140.229 194.871 140.828 194.218 141.269C193.566 141.71 192.843 141.922 192.084 141.922C191.538 141.922 191.026 141.834 190.532 141.64C190.038 141.446 189.598 141.181 189.21 140.811C188.822 140.44 188.522 139.982 188.31 139.435C188.081 138.871 187.975 138.236 187.975 137.513V130.952H190.462V137.072C190.462 137.513 190.532 137.883 190.673 138.201C190.814 138.518 190.991 138.8 191.22 139.012C191.449 139.223 191.714 139.4 192.014 139.523C192.314 139.629 192.613 139.7 192.949 139.7C193.319 139.7 193.672 139.629 194.024 139.47C194.359 139.329 194.677 139.118 194.941 138.836C195.206 138.571 195.435 138.218 195.594 137.812C195.753 137.407 195.841 136.931 195.841 136.402V130.934H198.31V130.952Z" fill="#7A5C45"/>
<path d="M214.395 130.634C214.888 130.634 215.382 130.74 215.841 130.917C216.299 131.093 216.723 131.393 217.093 131.763C217.446 132.134 217.746 132.592 217.957 133.139C218.169 133.686 218.275 134.321 218.275 135.061V141.622H215.788V135.59C215.788 134.779 215.576 134.127 215.135 133.615C214.694 133.104 214.095 132.839 213.336 132.839C212.578 132.839 211.961 133.121 211.467 133.703C210.973 134.285 210.726 135.097 210.726 136.137V141.604H208.239V135.573C208.239 134.762 208.028 134.109 207.604 133.597C207.181 133.086 206.582 132.821 205.806 132.821C205.029 132.821 204.43 133.104 203.936 133.686C203.442 134.268 203.195 135.079 203.195 136.119V141.587H200.708V130.899H203.195V132.91C203.619 132.116 204.148 131.534 204.8 131.164C205.453 130.793 206.141 130.599 206.846 130.599C207.234 130.599 207.622 130.652 207.992 130.775C208.363 130.899 208.716 131.075 209.051 131.287C209.368 131.516 209.65 131.798 209.915 132.151C210.162 132.504 210.356 132.91 210.515 133.368C210.92 132.416 211.484 131.728 212.19 131.269C212.895 130.811 213.636 130.581 214.412 130.581L214.395 130.634Z" fill="#7A5C45"/>
<path d="M234.201 130.634C234.694 130.634 235.188 130.74 235.647 130.917C236.105 131.093 236.528 131.393 236.899 131.763C237.252 132.134 237.551 132.592 237.763 133.139C237.975 133.686 238.081 134.321 238.081 135.061V141.622H235.594V135.59C235.594 134.779 235.382 134.127 234.941 133.615C234.5 133.104 233.901 132.839 233.142 132.839C232.384 132.839 231.767 133.121 231.273 133.703C230.779 134.285 230.532 135.097 230.532 136.137V141.604H228.045V135.573C228.045 134.762 227.834 134.109 227.41 133.597C226.987 133.086 226.387 132.821 225.611 132.821C224.835 132.821 224.236 133.104 223.742 133.686C223.248 134.268 223.001 135.079 223.001 136.119V141.587H220.515V130.899H223.001V132.91C223.424 132.116 223.954 131.534 224.606 131.164C225.259 130.793 225.947 130.599 226.652 130.599C227.04 130.599 227.428 130.652 227.799 130.775C228.169 130.899 228.522 131.075 228.857 131.287C229.174 131.516 229.456 131.798 229.721 132.151C229.968 132.504 230.162 132.91 230.32 133.368C230.726 132.416 231.291 131.728 231.996 131.269C232.702 130.811 233.442 130.581 234.218 130.581L234.201 130.634Z" fill="#7A5C45"/>
<path d="M241.537 129.506C241.149 129.506 240.814 129.365 240.532 129.082C240.25 128.8 240.109 128.465 240.109 128.077C240.109 127.689 240.25 127.336 240.532 127.054C240.797 126.772 241.149 126.631 241.537 126.631C241.925 126.631 242.278 126.772 242.543 127.054C242.825 127.336 242.966 127.672 242.966 128.077C242.966 128.483 242.825 128.783 242.543 129.082C242.278 129.365 241.925 129.506 241.537 129.506ZM240.303 141.622V130.952H242.79V141.622H240.303Z" fill="#7A5C45"/>
<path d="M254.412 137.901C254.412 139.241 254.024 140.229 253.23 140.899C252.437 141.569 251.308 141.904 249.844 141.904C249.033 141.904 248.327 141.763 247.692 141.481C247.058 141.199 246.511 140.811 246.07 140.299C245.629 139.788 245.276 139.206 245.047 138.5C244.818 137.795 244.694 137.054 244.694 136.261C244.694 135.291 244.835 134.479 245.135 133.774C245.435 133.086 245.823 132.522 246.299 132.063C246.776 131.605 247.322 131.269 247.922 131.022C248.521 130.793 249.121 130.652 249.721 130.599C250.444 130.546 251.061 130.599 251.625 130.74C252.19 130.882 252.648 131.093 253.036 131.393C253.424 131.675 253.707 132.028 253.901 132.451C254.095 132.874 254.201 133.333 254.201 133.827C254.201 134.109 254.183 134.391 254.13 134.656C254.077 134.92 253.989 135.167 253.848 135.396C253.707 135.626 253.513 135.837 253.266 136.049C253.019 136.261 252.701 136.437 252.296 136.613L247.834 138.518C248.292 139.223 248.927 139.576 249.738 139.576C250.338 139.576 250.832 139.453 251.22 139.188C251.608 138.924 251.82 138.483 251.82 137.883H254.412V137.901ZM247.269 136.278V136.507C247.269 136.507 247.269 136.649 247.287 136.737L250.955 135.15C251.167 135.061 251.343 134.955 251.484 134.832C251.625 134.709 251.696 134.515 251.696 134.268C251.696 133.844 251.52 133.509 251.167 133.245C250.814 132.98 250.409 132.857 249.932 132.857C249.615 132.857 249.297 132.927 248.98 133.051C248.662 133.174 248.38 133.368 248.116 133.65C247.851 133.915 247.657 134.268 247.498 134.709C247.34 135.15 247.269 135.679 247.269 136.296V136.278Z" fill="#7A5C45"/>
<path d="M258.363 133.897C258.363 134.25 258.504 134.515 258.821 134.691C259.121 134.867 259.509 135.008 259.968 135.114C260.426 135.22 260.92 135.326 261.449 135.414C261.978 135.52 262.472 135.679 262.931 135.89C263.389 136.119 263.777 136.437 264.077 136.825C264.377 137.213 264.536 137.777 264.536 138.5C264.536 139.682 264.147 140.529 263.371 141.075C262.595 141.622 261.555 141.904 260.25 141.904C259.703 141.904 259.156 141.816 258.645 141.64C258.133 141.463 257.675 141.216 257.305 140.917C256.917 140.599 256.617 140.211 256.387 139.753C256.158 139.294 256.035 138.783 256.035 138.218H258.345C258.345 138.483 258.416 138.73 258.539 138.941C258.662 139.135 258.839 139.312 259.051 139.453C259.262 139.576 259.492 139.682 259.756 139.735C260.021 139.806 260.267 139.823 260.514 139.823C260.955 139.823 261.361 139.735 261.696 139.576C262.031 139.417 262.207 139.171 262.207 138.871C262.207 138.536 262.066 138.271 261.766 138.095C261.467 137.918 261.096 137.777 260.638 137.654C260.179 137.53 259.703 137.425 259.174 137.301C258.645 137.178 258.169 137.001 257.71 136.754C257.252 136.507 256.881 136.172 256.581 135.749C256.282 135.326 256.14 134.762 256.14 134.056C256.14 133.474 256.246 132.962 256.458 132.539C256.67 132.098 256.969 131.746 257.34 131.463C257.71 131.181 258.133 130.97 258.627 130.828C259.121 130.687 259.633 130.617 260.179 130.617C261.573 130.617 262.613 130.934 263.283 131.569C263.954 132.204 264.289 133.086 264.289 134.232H262.084C262.084 134.003 262.031 133.792 261.908 133.615C261.784 133.439 261.643 133.28 261.449 133.174C261.255 133.051 261.043 132.963 260.797 132.91C260.55 132.857 260.303 132.821 260.056 132.821C259.615 132.821 259.227 132.91 258.874 133.086C258.521 133.262 258.363 133.527 258.363 133.897Z" fill="#7A5C45"/>
<path opacity="0.5" d="M231.502 27.2309C226.194 27.2309 221.449 29.8058 218.486 33.774C215.523 29.8058 210.779 27.2309 205.47 27.2309C196.458 27.2309 189.157 34.5678 189.157 43.633C189.157 47.1251 189.721 50.3526 190.673 53.3508C195.312 68.0245 209.597 76.7898 216.67 79.1883C217.675 79.5411 219.315 79.5411 220.303 79.1883C227.375 76.7898 241.661 68.0069 246.299 53.3508C247.269 50.3526 247.816 47.1251 247.816 43.633C247.816 34.5678 240.514 27.2309 231.502 27.2309Z" fill="white"/>
<path d="M254.43 33.7389C254.43 33.9329 254.324 34.0916 254.165 34.1798C254.112 34.2151 254.042 34.2325 253.989 34.2502C252.701 34.4618 252.066 35.2908 251.872 36.5077C251.855 36.6488 251.82 36.7899 251.802 36.931C251.731 37.2308 251.52 37.4425 251.273 37.4072C250.973 37.3719 250.814 37.1778 250.779 36.878C250.744 36.5077 250.638 36.1549 250.515 35.8022C250.215 34.9204 249.58 34.4618 248.698 34.2678C248.31 34.1797 248.116 34.0034 248.133 33.7389C248.151 33.4038 248.363 33.2802 248.68 33.2097C249.915 32.9628 250.497 32.1515 250.691 30.9698C250.709 30.8287 250.744 30.67 250.779 30.5112C250.832 30.2467 251.008 30.0703 251.273 30.0703C251.573 30.0703 251.731 30.2467 251.802 30.5289C251.873 30.8111 251.925 31.1109 251.978 31.3931C252.208 32.4513 252.895 32.998 253.901 33.2097C254.2 33.2802 254.395 33.4214 254.43 33.7389Z" fill="white"/>
<path d="M201.555 74.7792C201.555 74.9732 201.449 75.1319 201.291 75.2201C201.238 75.2554 201.167 75.2731 201.114 75.2907C199.827 75.5024 199.192 76.3313 198.998 77.5483C198.98 77.6893 198.945 77.8304 198.927 77.9715C198.857 78.2713 198.645 78.483 198.398 78.4477C198.098 78.4125 197.94 78.2184 197.904 77.9186C197.869 77.5482 197.763 77.1955 197.64 76.8427C197.34 75.9609 196.705 75.5024 195.823 75.3084C195.435 75.2202 195.241 75.0437 195.259 74.7792C195.276 74.4441 195.488 74.3208 195.806 74.2502C197.04 74.0033 197.622 73.192 197.816 72.0103C197.834 71.8692 197.869 71.7105 197.904 71.5518C197.957 71.2872 198.134 71.1108 198.398 71.1108C198.698 71.1108 198.857 71.2872 198.927 71.5694C198.998 71.8516 199.051 72.1514 199.104 72.4336C199.333 73.4918 200.021 74.0386 201.026 74.2502C201.326 74.3208 201.52 74.4617 201.555 74.7792Z" fill="white"/>
<path d="M221.837 26.9135C221.837 27.1075 221.731 27.2662 221.573 27.3544C221.52 27.3897 221.449 27.4072 221.396 27.4248C220.109 27.6364 219.474 28.4654 219.28 29.6823C219.262 29.8234 219.227 29.9645 219.21 30.1056C219.139 30.4054 218.927 30.6171 218.68 30.5818C218.381 30.5466 218.222 30.3525 218.186 30.0526C218.151 29.6823 218.045 29.3296 217.922 28.9768C217.622 28.095 216.987 27.6365 216.105 27.4425C215.717 27.3543 215.523 27.178 215.541 26.9135C215.559 26.5784 215.77 26.4549 216.088 26.3843C217.322 26.1374 217.904 25.3261 218.098 24.1444C218.116 24.0033 218.151 23.8446 218.186 23.6858C218.239 23.4213 218.416 23.2449 218.68 23.2449C218.98 23.2449 219.139 23.4213 219.21 23.7035C219.28 23.9857 219.333 24.2855 219.386 24.5677C219.615 25.6259 220.303 26.1727 221.308 26.3843C221.608 26.4549 221.802 26.596 221.837 26.9135Z" fill="white"/>
<path d="M239.774 38.9416C239.738 39.3473 239.562 39.6648 239.227 39.8588C239.104 39.9293 238.98 39.9821 238.856 39.9998C236.193 40.4407 234.888 42.1515 234.465 44.6912C234.412 44.991 234.359 45.2732 234.306 45.5554C234.183 46.1726 233.724 46.6134 233.195 46.5429C232.56 46.4724 232.225 46.0844 232.172 45.4671C232.102 44.6911 231.89 43.9505 231.626 43.2274C231.008 41.4108 229.668 40.4584 227.869 40.0351C227.075 39.8587 226.67 39.506 226.705 38.9416C226.758 38.2714 227.181 37.9893 227.816 37.8658C230.373 37.372 231.608 35.6612 231.996 33.2097C232.049 32.8923 232.102 32.5747 232.155 32.2749C232.278 31.7282 232.613 31.3578 233.195 31.3578C233.795 31.3578 234.148 31.7282 234.271 32.2926C234.394 32.8922 234.518 33.4919 234.659 34.0916C235.118 36.2609 236.564 37.4249 238.645 37.8658C239.28 37.9893 239.668 38.3067 239.738 38.9416H239.774Z" fill="white"/>
<path d="M394.722 96.7369C393.417 96.7369 392.129 96.4371 390.965 95.8727C390.366 95.5729 389.695 95.4318 389.043 95.4318C388.39 95.4318 387.72 95.5905 387.12 95.8903C385.956 96.4723 384.651 96.7722 383.364 96.7722C381.212 96.7722 379.166 95.9785 377.579 94.5323C376.768 93.7915 375.709 93.3859 374.616 93.3859C374.369 93.3859 374.122 93.4036 373.875 93.4565C373.399 93.5447 372.905 93.5798 372.429 93.5798C369.448 93.5798 366.644 92.0103 365.11 89.4706C364.404 88.3242 363.205 87.5481 361.865 87.3894C358.337 86.9837 355.48 84.5147 354.563 81.0932C354.21 79.7881 353.276 78.7122 352.024 78.1831C348.761 76.8074 346.715 73.6329 346.803 70.0879C346.838 68.7476 346.239 67.4248 345.198 66.5783C342.447 64.3384 341.389 60.7053 342.464 57.3367C342.87 56.0492 342.676 54.6206 341.9 53.5271C339.89 50.5994 339.89 46.8251 341.883 43.8974C342.641 42.7863 342.835 41.3578 342.429 40.0704C341.336 36.7018 342.394 33.0686 345.128 30.8288C346.168 29.9822 346.768 28.6595 346.715 27.3191C346.609 23.7742 348.655 20.5994 351.9 19.2061C353.135 18.677 354.087 17.5837 354.422 16.2786C355.322 12.8571 358.179 10.3701 361.688 9.94687C363.029 9.78814 364.228 9.01223 364.933 7.84822C366.468 5.2909 369.272 3.72129 372.235 3.70365C372.711 3.70365 373.205 3.73883 373.681 3.82701C373.928 3.86229 374.175 3.89763 374.422 3.89763C375.515 3.89763 376.574 3.49193 377.385 2.73355C378.955 1.28735 381.018 0.47601 383.152 0.47601C384.457 0.47601 385.745 0.776031 386.909 1.3404C387.508 1.64023 388.179 1.78132 388.831 1.78132C389.484 1.78132 390.154 1.62257 390.754 1.32275C391.918 0.740741 393.223 0.440918 394.51 0.440918C396.662 0.440918 398.708 1.23439 400.295 2.68059C401.106 3.42133 402.164 3.82701 403.258 3.82701C403.505 3.82701 403.752 3.80952 403.999 3.75661C404.475 3.66843 404.969 3.63304 405.445 3.63304C408.425 3.63304 411.23 5.20262 412.764 7.74229C413.469 8.88867 414.669 9.66478 416.009 9.82351C419.536 10.2292 422.394 12.6982 423.311 16.1197C423.663 17.4248 424.598 18.5007 425.85 19.0298C429.113 20.4054 431.159 23.5802 431.071 27.1251C431.036 28.4655 431.635 29.7883 432.676 30.6348C435.427 32.8747 436.485 36.5078 435.409 39.8764C435.004 41.1639 435.198 42.5923 435.956 43.6857C437.967 46.6134 437.967 50.3878 435.974 53.3155C435.215 54.4266 435.021 55.855 435.427 57.1425C436.521 60.5111 435.462 64.1442 432.729 66.3841C431.688 67.2306 431.089 68.5536 431.124 69.894C431.23 73.4389 429.184 76.6135 425.939 78.0068C424.704 78.5359 423.752 79.6292 423.417 80.9343C422.517 84.3558 419.66 86.8427 416.15 87.266C414.81 87.4247 413.61 88.2006 412.905 89.3647C411.371 91.922 408.567 93.4916 405.604 93.5092C405.127 93.5092 404.634 93.474 404.157 93.3859C403.91 93.3506 403.663 93.3152 403.417 93.3152C402.323 93.3152 401.265 93.7209 400.454 94.4793C398.884 95.9255 396.821 96.7369 394.686 96.7369H394.722Z" fill="url(#paint1_linear_1_47)" stroke="#7A5C45" stroke-width="0.881831" stroke-miterlimit="10"/>
<path d="M355.269 110.088L349.66 123.915H347.173L341.565 110.088H344.351L348.426 120.141L352.5 110.088H355.286H355.269Z" fill="#7A5C45"/>
<path d="M364.404 120.211C364.404 121.552 364.016 122.539 363.223 123.21C362.429 123.88 361.3 124.215 359.836 124.215C359.025 124.215 358.32 124.074 357.685 123.791C357.05 123.509 356.503 123.121 356.062 122.61C355.621 122.098 355.269 121.516 355.039 120.811C354.81 120.105 354.687 119.365 354.687 118.571C354.687 117.601 354.828 116.79 355.128 116.084C355.427 115.396 355.815 114.832 356.291 114.374C356.768 113.915 357.314 113.58 357.914 113.333C358.514 113.104 359.113 112.962 359.713 112.91C360.436 112.857 361.053 112.91 361.618 113.051C362.182 113.192 362.641 113.404 363.029 113.703C363.417 113.986 363.699 114.338 363.893 114.762C364.087 115.185 364.193 115.643 364.193 116.137C364.193 116.419 364.175 116.702 364.122 116.966C364.069 117.231 363.981 117.478 363.84 117.707C363.699 117.936 363.505 118.148 363.258 118.359C363.011 118.571 362.694 118.747 362.288 118.924L357.826 120.829C358.284 121.534 358.919 121.887 359.731 121.887C360.33 121.887 360.824 121.763 361.212 121.499C361.6 121.234 361.812 120.793 361.812 120.194H364.404V120.211ZM357.279 118.589V118.818C357.279 118.818 357.279 118.959 357.297 119.047L360.965 117.46C361.177 117.372 361.353 117.266 361.494 117.142C361.635 117.019 361.706 116.825 361.706 116.578C361.706 116.155 361.53 115.82 361.177 115.555C360.824 115.291 360.419 115.167 359.942 115.167C359.625 115.167 359.307 115.238 358.99 115.361C358.672 115.485 358.39 115.679 358.126 115.961C357.861 116.225 357.667 116.578 357.508 117.019C357.35 117.46 357.279 117.989 357.279 118.606V118.589Z" fill="#7A5C45"/>
<path d="M376.433 125.026C376.15 125.573 375.815 126.067 375.462 126.525C375.11 126.984 374.669 127.389 374.193 127.724C373.716 128.059 373.152 128.324 372.535 128.518C371.918 128.712 371.212 128.8 370.418 128.8C369.854 128.8 369.307 128.73 368.743 128.571C368.179 128.43 367.685 128.183 367.244 127.866C366.803 127.548 366.432 127.16 366.168 126.684C365.903 126.208 365.762 125.661 365.762 125.026C365.762 124.232 365.992 123.562 366.45 123.033C366.909 122.504 367.508 122.116 368.267 121.904C367.597 121.463 367.05 120.899 366.662 120.176C366.274 119.453 366.062 118.659 366.062 117.795C366.062 117.125 366.186 116.49 366.432 115.908C366.679 115.308 367.015 114.797 367.456 114.356C367.896 113.915 368.408 113.562 369.008 113.315C369.607 113.051 370.26 112.927 370.948 112.927C371.635 112.927 372.288 113.051 372.888 113.315C373.487 113.58 373.999 113.915 374.44 114.356C374.88 114.797 375.216 115.326 375.462 115.908C375.709 116.507 375.833 117.125 375.833 117.795C375.833 118.465 375.709 119.1 375.462 119.7C375.216 120.299 374.863 120.811 374.44 121.252C373.999 121.693 373.487 122.045 372.888 122.292C372.288 122.539 371.653 122.68 370.948 122.68C370.665 122.68 370.348 122.68 370.013 122.733C369.66 122.768 369.325 122.839 369.008 122.962C368.69 123.086 368.425 123.245 368.214 123.474C368.002 123.686 367.896 123.985 367.896 124.373C367.896 124.708 367.967 124.991 368.126 125.255C368.267 125.52 368.461 125.731 368.725 125.908C368.972 126.084 369.272 126.225 369.607 126.331C369.942 126.437 370.295 126.472 370.683 126.472C371.124 126.472 371.529 126.402 371.953 126.278C372.358 126.137 372.746 125.961 373.099 125.749C373.452 125.52 373.787 125.255 374.069 124.955C374.351 124.638 374.616 124.32 374.828 123.985L376.485 125.043L376.433 125.026ZM370.93 115.291C370.542 115.291 370.172 115.361 369.872 115.502C369.572 115.643 369.307 115.837 369.113 116.067C368.902 116.296 368.761 116.578 368.637 116.878C368.531 117.178 368.478 117.495 368.478 117.83C368.478 118.165 368.531 118.483 368.637 118.783C368.743 119.082 368.902 119.347 369.113 119.594C369.307 119.823 369.572 120.017 369.872 120.158C370.172 120.299 370.542 120.37 370.93 120.37C371.318 120.37 371.671 120.299 371.97 120.158C372.27 120.017 372.535 119.823 372.729 119.594C372.923 119.365 373.082 119.082 373.187 118.783C373.293 118.483 373.346 118.165 373.346 117.83C373.346 117.495 373.293 117.195 373.187 116.878C373.082 116.578 372.923 116.313 372.729 116.067C372.535 115.82 372.27 115.643 371.97 115.502C371.671 115.361 371.318 115.291 370.93 115.291ZM375.268 113.209C374.88 113.28 374.528 113.209 374.193 112.98C373.858 112.751 373.664 112.469 373.593 112.081C373.522 111.693 373.593 111.322 373.805 111.005C374.034 110.687 374.334 110.476 374.722 110.405C375.11 110.335 375.463 110.405 375.78 110.634C376.115 110.846 376.309 111.146 376.397 111.534C376.468 111.922 376.397 112.275 376.168 112.61C375.939 112.945 375.639 113.139 375.251 113.227L375.268 113.209Z" fill="#7A5C45"/>
<path d="M386.926 120.211C386.926 121.552 386.538 122.539 385.745 123.21C384.951 123.88 383.822 124.215 382.358 124.215C381.547 124.215 380.842 124.074 380.207 123.791C379.572 123.509 379.025 123.121 378.584 122.61C378.143 122.098 377.791 121.516 377.561 120.811C377.332 120.105 377.208 119.365 377.208 118.571C377.208 117.601 377.35 116.79 377.649 116.084C377.949 115.396 378.337 114.832 378.813 114.374C379.29 113.915 379.836 113.58 380.436 113.333C381.036 113.104 381.635 112.962 382.235 112.91C382.958 112.857 383.575 112.91 384.14 113.051C384.704 113.192 385.163 113.404 385.551 113.703C385.939 113.986 386.221 114.338 386.415 114.762C386.609 115.185 386.715 115.643 386.715 116.137C386.715 116.419 386.697 116.702 386.644 116.966C386.591 117.231 386.503 117.478 386.362 117.707C386.221 117.936 386.027 118.148 385.78 118.359C385.533 118.571 385.216 118.747 384.81 118.924L380.348 120.829C380.806 121.534 381.441 121.887 382.252 121.887C382.852 121.887 383.346 121.763 383.734 121.499C384.122 121.234 384.334 120.793 384.334 120.194H386.926V120.211ZM379.801 118.589V118.818C379.801 118.818 379.801 118.959 379.819 119.047L383.487 117.46C383.699 117.372 383.875 117.266 384.016 117.142C384.157 117.019 384.228 116.825 384.228 116.578C384.228 116.155 384.052 115.82 383.699 115.555C383.346 115.291 382.941 115.167 382.464 115.167C382.147 115.167 381.829 115.238 381.512 115.361C381.194 115.485 380.912 115.679 380.648 115.961C380.383 116.225 380.189 116.578 380.03 117.019C379.872 117.46 379.801 117.989 379.801 118.606V118.589Z" fill="#7A5C45"/>
<path d="M393.822 121.675V123.932H391.653C391.318 123.932 391 123.897 390.648 123.809C390.312 123.721 390.013 123.58 389.748 123.368C389.483 123.157 389.254 122.892 389.095 122.557C388.937 122.222 388.849 121.816 388.849 121.34V111.234H391.335V113.262H393.505V115.414H391.335V120.529C391.335 120.917 391.441 121.199 391.653 121.393C391.865 121.587 392.147 121.675 392.482 121.675H393.822Z" fill="#7A5C45"/>
<path d="M400.436 112.945C401.265 112.945 402.023 113.086 402.711 113.368C403.399 113.633 403.999 114.038 404.492 114.532C404.986 115.026 405.374 115.626 405.639 116.314C405.921 117.001 406.062 117.76 406.062 118.589V123.95H403.575V122.134C403.452 122.398 403.258 122.68 403.028 122.927C402.799 123.192 402.535 123.403 402.253 123.597C401.97 123.791 401.635 123.95 401.282 124.056C400.93 124.162 400.559 124.232 400.154 124.232C399.395 124.232 398.69 124.091 398.037 123.827C397.402 123.562 396.838 123.174 396.379 122.68C395.921 122.187 395.568 121.587 395.304 120.899C395.039 120.194 394.916 119.435 394.916 118.589C394.916 117.795 395.039 117.054 395.304 116.384C395.568 115.714 395.939 115.097 396.415 114.603C396.891 114.091 397.473 113.703 398.161 113.403C398.849 113.121 399.607 112.963 400.454 112.963L400.436 112.945ZM400.436 121.746C400.912 121.746 401.335 121.658 401.723 121.481C402.111 121.305 402.429 121.075 402.711 120.776C402.993 120.493 403.205 120.141 403.346 119.77C403.487 119.382 403.575 118.977 403.575 118.571C403.575 117.619 403.293 116.86 402.711 116.278C402.129 115.696 401.371 115.414 400.436 115.414C399.924 115.414 399.501 115.502 399.131 115.679C398.76 115.855 398.461 116.084 398.231 116.384C397.984 116.684 397.808 117.019 397.702 117.407C397.596 117.795 397.526 118.183 397.526 118.571C397.526 118.959 397.596 119.365 397.702 119.735C397.808 120.105 398.002 120.458 398.231 120.758C398.461 121.058 398.76 121.287 399.131 121.481C399.501 121.675 399.942 121.763 400.436 121.763V121.746Z" fill="#7A5C45"/>
<path d="M414.51 112.945C415.356 112.945 416.097 113.104 416.714 113.421C417.332 113.739 417.861 114.162 418.284 114.691C418.707 115.22 419.025 115.82 419.237 116.49C419.448 117.16 419.554 117.866 419.554 118.571C419.554 119.276 419.448 119.964 419.237 120.652C419.025 121.322 418.707 121.94 418.284 122.469C417.861 122.998 417.332 123.421 416.714 123.738C416.08 124.056 415.356 124.215 414.51 124.215C413.61 124.215 412.834 124.003 412.182 123.58C411.529 123.156 411.036 122.627 410.683 121.992V123.932H408.196V108.959H410.683V115.185C411.036 114.55 411.529 114.021 412.182 113.597C412.834 113.174 413.61 112.962 414.51 112.962V112.945ZM413.875 121.975C414.563 121.975 415.127 121.799 415.586 121.463C416.044 121.128 416.379 120.705 416.591 120.211C416.82 119.717 416.944 119.171 416.926 118.589C416.926 118.007 416.803 117.46 416.573 116.966C416.344 116.472 416.009 116.049 415.55 115.714C415.092 115.379 414.528 115.202 413.857 115.202C413.311 115.202 412.852 115.308 412.447 115.502C412.041 115.696 411.706 115.961 411.441 116.278C411.177 116.596 410.983 116.966 410.859 117.372C410.736 117.777 410.665 118.183 410.665 118.589C410.665 118.994 410.736 119.4 410.859 119.805C410.983 120.211 411.177 120.581 411.441 120.899C411.706 121.216 412.041 121.481 412.447 121.675C412.852 121.869 413.311 121.975 413.857 121.975H413.875Z" fill="#7A5C45"/>
<path d="M421.477 123.915V108.941H423.963V123.915H421.477Z" fill="#7A5C45"/>
<path d="M435.603 120.211C435.603 121.552 435.215 122.539 434.422 123.21C433.628 123.88 432.499 124.215 431.035 124.215C430.224 124.215 429.519 124.074 428.884 123.791C428.249 123.509 427.702 123.121 427.261 122.61C426.82 122.098 426.468 121.516 426.238 120.811C426.009 120.105 425.886 119.365 425.886 118.571C425.886 117.601 426.027 116.79 426.327 116.084C426.626 115.396 427.014 114.832 427.49 114.374C427.967 113.915 428.513 113.58 429.113 113.333C429.713 113.104 430.312 112.962 430.912 112.91C431.635 112.857 432.252 112.91 432.817 113.051C433.381 113.192 433.84 113.404 434.228 113.703C434.616 113.986 434.898 114.338 435.092 114.762C435.286 115.185 435.392 115.643 435.392 116.137C435.392 116.419 435.374 116.702 435.321 116.966C435.268 117.231 435.18 117.478 435.039 117.707C434.898 117.936 434.704 118.148 434.457 118.359C434.21 118.571 433.893 118.747 433.487 118.924L429.025 120.829C429.483 121.534 430.118 121.887 430.93 121.887C431.529 121.887 432.023 121.763 432.411 121.499C432.799 121.234 433.011 120.793 433.011 120.194H435.603V120.211ZM428.478 118.589V118.818C428.478 118.818 428.478 118.959 428.496 119.047L432.164 117.46C432.376 117.372 432.552 117.266 432.693 117.142C432.834 117.019 432.905 116.825 432.905 116.578C432.905 116.155 432.729 115.82 432.376 115.555C432.023 115.291 431.617 115.167 431.141 115.167C430.824 115.167 430.506 115.238 430.189 115.361C429.871 115.485 429.589 115.679 429.325 115.961C429.06 116.225 428.866 116.578 428.707 117.019C428.549 117.46 428.478 117.989 428.478 118.606V118.589Z" fill="#7A5C45"/>
<path d="M366.503 129.929C368.037 129.929 369.184 130.317 369.924 131.093C370.665 131.869 371.036 132.98 371.036 134.426C371.036 135.114 370.93 135.679 370.718 136.155C370.489 136.613 370.207 137.019 369.872 137.354C369.519 137.689 369.113 137.954 368.672 138.183C368.231 138.412 367.773 138.624 367.297 138.8C366.82 138.977 366.362 139.188 365.921 139.364C365.48 139.541 365.074 139.77 364.722 140.017C364.369 140.264 364.087 140.581 363.875 140.934C363.664 141.287 363.558 141.728 363.558 142.257V143.739H360.965V129.911H366.503V129.929ZM363.575 138.236C364.016 137.813 364.528 137.477 365.074 137.248C365.639 137.019 366.168 136.772 366.644 136.543C367.12 136.313 367.544 136.049 367.861 135.731C368.179 135.414 368.355 134.991 368.355 134.444C368.355 133.95 368.284 133.58 368.161 133.315C368.037 133.051 367.861 132.839 367.649 132.716C367.455 132.575 367.226 132.504 366.979 132.469C366.732 132.433 366.503 132.416 366.291 132.416H363.558V138.236H363.575Z" fill="#7A5C45"/>
<path d="M382.023 140.052C382.023 141.393 381.635 142.381 380.842 143.051C380.048 143.721 378.919 144.056 377.455 144.056C376.644 144.056 375.939 143.915 375.304 143.633C374.669 143.351 374.122 142.962 373.681 142.451C373.24 141.939 372.888 141.358 372.658 140.652C372.429 139.947 372.306 139.206 372.306 138.412C372.306 137.442 372.447 136.631 372.747 135.925C373.046 135.238 373.434 134.673 373.91 134.215C374.387 133.756 374.933 133.421 375.533 133.174C376.133 132.945 376.732 132.804 377.332 132.751C378.055 132.698 378.672 132.751 379.237 132.892C379.801 133.033 380.26 133.245 380.648 133.545C381.036 133.827 381.318 134.179 381.512 134.603C381.706 135.026 381.812 135.485 381.812 135.978C381.812 136.261 381.794 136.543 381.741 136.807C381.688 137.072 381.6 137.319 381.459 137.548C381.318 137.777 381.124 137.989 380.877 138.201C380.63 138.412 380.313 138.589 379.907 138.765L375.445 140.67C375.903 141.375 376.538 141.728 377.35 141.728C377.949 141.728 378.443 141.604 378.831 141.34C379.219 141.075 379.431 140.634 379.431 140.035H382.023V140.052ZM374.88 138.43V138.659C374.88 138.659 374.88 138.8 374.898 138.889L378.566 137.301C378.778 137.213 378.955 137.107 379.096 136.984C379.237 136.86 379.307 136.666 379.307 136.419C379.307 135.996 379.131 135.661 378.778 135.396C378.425 135.132 378.02 135.008 377.544 135.008C377.226 135.008 376.909 135.079 376.591 135.202C376.274 135.326 375.992 135.52 375.727 135.802C375.462 136.067 375.268 136.419 375.11 136.86C374.951 137.301 374.88 137.83 374.88 138.448V138.43Z" fill="#7A5C45"/>
<path d="M388.637 141.604C389.272 141.604 389.766 141.481 390.154 141.216C390.524 140.952 390.718 140.511 390.718 139.911H393.311C393.311 140.564 393.205 141.164 392.976 141.675C392.746 142.186 392.429 142.627 392.023 142.98C391.618 143.333 391.142 143.615 390.577 143.791C390.03 143.985 389.413 144.074 388.743 144.074C387.932 144.074 387.191 143.932 386.556 143.65C385.921 143.368 385.374 142.962 384.933 142.469C384.492 141.957 384.157 141.358 383.928 140.67C383.699 139.982 383.575 139.241 383.575 138.43C383.575 137.619 383.681 136.86 383.928 136.19C384.175 135.52 384.492 134.903 384.933 134.409C385.374 133.915 385.921 133.527 386.556 133.227C387.191 132.945 387.914 132.804 388.743 132.804C389.413 132.804 390.03 132.892 390.577 133.086C391.142 133.28 391.618 133.544 392.023 133.897C392.429 134.25 392.746 134.691 392.976 135.202C393.205 135.714 393.311 136.296 393.311 136.948H390.718C390.718 136.349 390.524 135.908 390.154 135.643C389.784 135.379 389.272 135.255 388.637 135.255C387.861 135.255 387.261 135.52 386.821 136.049C386.38 136.578 386.168 137.372 386.168 138.43C386.168 139.488 386.38 140.299 386.821 140.828C387.261 141.358 387.861 141.622 388.637 141.622V141.604Z" fill="#7A5C45"/>
<path d="M400.171 141.516V143.774H398.002C397.667 143.774 397.35 143.738 396.997 143.65C396.662 143.562 396.362 143.421 396.097 143.209C395.833 142.998 395.604 142.733 395.445 142.398C395.286 142.063 395.198 141.657 395.198 141.181V131.075H397.684V133.104H399.854V135.255H397.684V140.37C397.684 140.758 397.79 141.04 398.002 141.234C398.214 141.428 398.496 141.516 398.831 141.516H400.171Z" fill="#7A5C45"/>
<path d="M403.17 131.657C402.782 131.657 402.446 131.516 402.164 131.234C401.882 130.952 401.741 130.617 401.741 130.229C401.741 129.841 401.882 129.488 402.164 129.206C402.429 128.924 402.782 128.782 403.17 128.782C403.558 128.782 403.91 128.924 404.175 129.206C404.457 129.488 404.598 129.823 404.598 130.229C404.598 130.634 404.457 130.934 404.175 131.234C403.91 131.516 403.558 131.657 403.17 131.657ZM401.935 143.756V133.086H404.422V143.756H401.935Z" fill="#7A5C45"/>
<path d="M412.993 132.786C413.54 132.786 414.051 132.874 414.545 133.068C415.039 133.262 415.48 133.527 415.868 133.897C416.256 134.268 416.556 134.726 416.768 135.273C416.997 135.82 417.102 136.472 417.102 137.213V143.774H414.634V137.654C414.634 137.213 414.563 136.842 414.422 136.507C414.281 136.172 414.104 135.908 413.875 135.678C413.646 135.449 413.381 135.29 413.064 135.167C412.764 135.061 412.447 134.991 412.111 134.991C411.759 134.991 411.406 135.061 411.053 135.202C410.701 135.343 410.401 135.555 410.136 135.837C409.872 136.119 409.66 136.472 409.501 136.878C409.342 137.283 409.254 137.76 409.254 138.271V143.739H406.767V133.051H409.254V135.255C409.66 134.462 410.189 133.844 410.859 133.403C411.512 132.962 412.235 132.733 412.993 132.733V132.786Z" fill="#7A5C45"/>
<path opacity="0.5" d="M414.51 39.7528C416.274 29.647 417.632 27.2308 415.727 26.4019C384.422 19.6295 370.524 39.3825 370.471 39.4354C362.129 48.3948 360.912 68.0067 366.962 72.4864C372.976 76.684 396.062 77.4952 406.838 61.4282C410.348 55.908 412.217 53.0861 414.528 39.7528H414.51Z" fill="white"/>
<path d="M407.949 31.1462C401.459 34.938 395.198 39.2767 389.466 44.1973C387.402 41.7811 386.732 38.2362 388.231 35.2733C388.496 34.7089 388.831 34.1621 389.113 33.5977C389.237 33.3684 389.166 33.0686 388.937 32.9275C388.69 32.7687 388.372 32.8394 388.214 33.0687C387.861 33.6154 387.455 34.1444 387.138 34.7264C385.004 38.1832 385.48 42.5218 387.755 45.714C384.51 48.6064 381.441 51.6928 378.602 54.9733C377.12 52.7334 376.274 49.9645 376.291 47.3014C376.256 46.1021 376.468 44.9027 376.697 43.7034C376.75 43.4036 376.574 43.1038 376.291 43.0156C375.974 42.9274 375.639 43.1039 375.551 43.4214C374.052 47.8658 374.563 52.857 376.997 56.8605C374.263 60.1938 371.741 63.7388 369.519 67.4601C368.866 68.6418 370.648 69.6117 371.3 68.483C373.558 65.1497 375.992 61.9573 378.602 58.8885C378.655 58.9062 378.69 58.9239 378.743 58.9415C379.431 59.3295 380.295 59.6118 380.824 59.9469C386.468 62.4866 393.416 62.9804 398.866 59.6647C399.289 59.4178 398.902 58.7475 398.478 58.9768C392.641 61.9221 385.603 60.37 380.312 56.9309C383.205 53.6681 386.256 50.5466 389.448 47.566C389.536 47.6718 389.96 47.8657 390.559 48.1655C395.551 49.9116 401.159 48.9769 405.639 46.2962C406.309 45.8905 405.692 44.8675 405.021 45.2555C401.776 46.8075 397.914 47.5129 394.351 46.7898C393.293 46.6135 392.305 46.2256 391.353 45.8023C396.803 40.8993 402.623 36.4019 408.637 32.2573C409.342 31.7987 408.655 30.7405 407.949 31.1462Z" fill="url(#paint2_linear_1_47)"/>
<path d="M403.328 25.5378C403.293 25.9435 403.117 26.261 402.781 26.455C402.658 26.5255 402.535 26.5783 402.411 26.596C399.748 27.0369 398.443 28.7477 398.02 31.2874C397.967 31.5872 397.914 31.8694 397.861 32.1516C397.738 32.7688 397.279 33.2096 396.75 33.1391C396.115 33.0685 395.78 32.6806 395.727 32.0633C395.656 31.2873 395.445 30.5465 395.18 29.8234C394.563 28.0068 393.223 27.0546 391.424 26.6313C390.63 26.4549 390.224 26.1022 390.26 25.5378C390.312 24.8676 390.736 24.5855 391.371 24.462C393.928 23.9682 395.162 22.2574 395.55 19.8059C395.603 19.4885 395.656 19.1709 395.709 18.8711C395.833 18.3244 396.168 17.954 396.75 17.954C397.35 17.954 397.702 18.3244 397.826 18.8888C397.949 19.4884 398.073 20.0881 398.214 20.6877C398.672 22.857 400.118 24.0211 402.2 24.462C402.834 24.5855 403.222 24.9029 403.293 25.5378H403.328Z" fill="white"/>
<path d="M366.186 49.4531C366.186 49.7 366.115 49.8941 365.939 50.0352C365.868 50.0881 365.798 50.1233 365.727 50.1586C364.175 50.6348 363.523 51.7635 363.487 53.2979C363.487 53.4743 363.487 53.6505 363.47 53.8269C363.434 54.2149 363.205 54.4971 362.888 54.4971C362.5 54.4971 362.27 54.3032 362.2 53.9328C362.094 53.4743 361.918 53.051 361.706 52.6277C361.195 51.5872 360.33 51.1286 359.219 51.0227C358.725 50.9875 358.461 50.7936 358.443 50.4585C358.425 50.0528 358.655 49.8411 359.025 49.7176C360.524 49.2238 361.106 48.0951 361.159 46.6136C361.159 46.4196 361.159 46.2257 361.177 46.0317C361.212 45.6966 361.389 45.4497 361.724 45.3968C362.094 45.3438 362.323 45.5379 362.447 45.873C362.57 46.2257 362.694 46.5608 362.817 46.9135C363.258 48.1833 364.21 48.7476 365.498 48.8535C365.886 48.8887 366.15 49.0474 366.239 49.4177L366.186 49.4531Z" fill="white"/>
<path d="M408.972 68.0951C408.866 68.2539 408.725 68.3597 408.531 68.3597C408.461 68.3597 408.39 68.3597 408.337 68.3421C407.103 67.9364 406.15 68.3773 405.409 69.3826C405.321 69.506 405.233 69.6117 405.145 69.7176C404.951 69.9645 404.669 70.0352 404.457 69.8941C404.21 69.7177 404.14 69.4884 404.263 69.2062C404.404 68.8535 404.475 68.5008 404.528 68.1304C404.669 67.2133 404.316 66.5079 403.628 65.9259C403.328 65.6789 403.24 65.432 403.381 65.2027C403.558 64.9205 403.804 64.9029 404.104 64.9911C405.321 65.3438 406.221 64.8853 406.926 63.9329C407.014 63.8094 407.103 63.6858 407.208 63.5624C407.385 63.3508 407.614 63.2803 407.861 63.4037C408.125 63.5448 408.178 63.7741 408.108 64.0386C408.037 64.3208 407.949 64.603 407.879 64.8851C407.596 65.9257 407.949 66.7371 408.743 67.3896C408.972 67.6013 409.078 67.8129 408.972 68.0951Z" fill="white"/>
<path d="M564.696 96.7369C563.391 96.7369 562.104 96.4371 560.94 95.8727C560.34 95.5729 559.67 95.4318 559.017 95.4318C558.365 95.4318 557.695 95.5905 557.095 95.8903C555.931 96.4723 554.626 96.7722 553.338 96.7722C551.187 96.7722 549.141 95.9785 547.554 94.5323C546.742 93.7915 545.684 93.3859 544.591 93.3859C544.344 93.3859 544.097 93.4036 543.85 93.4565C543.374 93.5447 542.88 93.5798 542.404 93.5798C539.423 93.5798 536.619 92.0103 535.085 89.4706C534.379 88.3242 533.18 87.5481 531.839 87.3894C528.312 86.9837 525.455 84.5147 524.538 81.0932C524.185 79.7881 523.25 78.7122 521.998 78.1831C518.735 76.8074 516.69 73.6329 516.778 70.0879C516.813 68.7476 516.213 67.4248 515.173 66.5783C512.421 64.3384 511.363 60.7053 512.439 57.3367C512.845 56.0492 512.651 54.6206 511.875 53.5271C509.864 50.5994 509.864 46.8251 511.857 43.8974C512.615 42.7863 512.81 41.3578 512.404 40.0704C511.31 36.7018 512.368 33.0686 515.102 30.8288C516.143 29.9822 516.742 28.6595 516.689 27.3191C516.584 23.7742 518.63 20.5994 521.875 19.2061C523.109 18.677 524.062 17.5837 524.397 16.2786C525.296 12.8571 528.153 10.3701 531.663 9.94687C533.003 9.78814 534.203 9.01223 534.908 7.84822C536.443 5.2909 539.247 3.72129 542.21 3.70365C542.686 3.70365 543.18 3.73883 543.656 3.82701C543.903 3.86229 544.15 3.89763 544.397 3.89763C545.49 3.89763 546.548 3.49193 547.36 2.73355C548.929 1.28735 550.993 0.47601 553.127 0.47601C554.432 0.47601 555.719 0.776031 556.883 1.3404C557.483 1.64023 558.153 1.78132 558.806 1.78132C559.458 1.78132 560.128 1.62257 560.728 1.32275C561.892 0.740741 563.197 0.440918 564.485 0.440918C566.636 0.440918 568.682 1.23439 570.27 2.68059C571.081 3.42133 572.139 3.82701 573.233 3.82701C573.48 3.82701 573.726 3.80952 573.973 3.75661C574.449 3.66843 574.943 3.63304 575.42 3.63304C578.4 3.63304 581.204 5.20262 582.739 7.74229C583.444 8.88867 584.643 9.66478 585.984 9.82351C589.511 10.2292 592.368 12.6982 593.285 16.1197C593.638 17.4248 594.573 18.5007 595.825 19.0298C599.088 20.4054 601.134 23.5802 601.046 27.1251C601.01 28.4655 601.61 29.7883 602.65 30.6348C605.402 32.8747 606.46 36.5078 605.384 39.8764C604.979 41.1639 605.172 42.5923 605.931 43.6857C607.941 46.6134 607.941 50.3878 605.948 53.3155C605.19 54.4266 604.996 55.855 605.402 57.1425C606.495 60.5111 605.437 64.1442 602.703 66.3841C601.663 67.2306 601.063 68.5536 601.098 69.894C601.204 73.4389 599.158 76.6135 595.913 78.0068C594.679 78.5359 593.726 79.6292 593.391 80.9343C592.492 84.3558 589.635 86.8427 586.125 87.266C584.784 87.4247 583.585 88.2006 582.88 89.3647C581.345 91.922 578.541 93.4916 575.578 93.5092C575.102 93.5092 574.608 93.474 574.132 93.3859C573.885 93.3506 573.638 93.3152 573.391 93.3152C572.298 93.3152 571.24 93.7209 570.428 94.4793C568.859 95.9255 566.795 96.7369 564.661 96.7369H564.696Z" fill="url(#paint3_linear_1_47)" stroke="#7A5C45" stroke-width="0.881831" stroke-miterlimit="10"/>
<path d="M552.457 119.294V121.763H542.227V107.936H552.263V110.405H544.82V115.467C545.331 114.762 545.949 114.25 546.654 113.933C547.359 113.615 548.065 113.421 548.771 113.421H551.204V115.784H549.158C548.665 115.784 548.171 115.855 547.659 115.961C547.148 116.067 546.672 116.278 546.248 116.56C545.825 116.843 545.49 117.195 545.226 117.654C544.961 118.095 544.838 118.659 544.838 119.312H552.474L552.457 119.294Z" fill="#7A5C45"/>
<path d="M558.806 119.612C559.441 119.612 559.934 119.488 560.322 119.224C560.693 118.959 560.887 118.518 560.887 117.919H563.479C563.479 118.571 563.373 119.171 563.144 119.682C562.915 120.194 562.598 120.635 562.192 120.987C561.786 121.34 561.31 121.622 560.746 121.798C560.199 121.993 559.582 122.081 558.912 122.081C558.1 122.081 557.36 121.94 556.725 121.657C556.09 121.375 555.543 120.97 555.102 120.476C554.661 119.964 554.326 119.365 554.097 118.677C553.868 117.989 553.744 117.248 553.744 116.437C553.744 115.626 553.85 114.867 554.097 114.197C554.344 113.527 554.661 112.91 555.102 112.416C555.543 111.922 556.09 111.534 556.725 111.234C557.36 110.952 558.083 110.811 558.912 110.811C559.582 110.811 560.199 110.899 560.746 111.093C561.31 111.287 561.786 111.552 562.192 111.904C562.598 112.257 562.915 112.698 563.144 113.209C563.373 113.721 563.479 114.303 563.479 114.955H560.887C560.887 114.356 560.693 113.915 560.322 113.65C559.952 113.386 559.441 113.262 558.806 113.262C558.03 113.262 557.43 113.527 556.989 114.056C556.548 114.585 556.336 115.379 556.336 116.437C556.336 117.495 556.548 118.307 556.989 118.836C557.43 119.365 558.03 119.629 558.806 119.629V119.612Z" fill="#7A5C45"/>
<path d="M570.569 110.793C571.381 110.793 572.139 110.934 572.827 111.234C573.515 111.534 574.114 111.94 574.608 112.451C575.119 112.963 575.508 113.562 575.79 114.25C576.072 114.938 576.213 115.661 576.213 116.437C576.213 117.213 576.072 117.936 575.79 118.624C575.508 119.312 575.102 119.911 574.608 120.423C574.097 120.934 573.515 121.34 572.827 121.622C572.139 121.922 571.398 122.063 570.569 122.063C569.74 122.063 569.017 121.922 568.329 121.622C567.642 121.322 567.042 120.934 566.548 120.423C566.037 119.911 565.649 119.33 565.366 118.624C565.084 117.936 564.943 117.213 564.943 116.437C564.943 115.661 565.084 114.938 565.366 114.25C565.649 113.562 566.054 112.963 566.548 112.451C567.06 111.94 567.642 111.534 568.329 111.234C569.017 110.934 569.758 110.793 570.569 110.793ZM570.569 119.735C571.063 119.735 571.522 119.647 571.91 119.471C572.298 119.277 572.615 119.03 572.88 118.73C573.144 118.43 573.338 118.06 573.462 117.672C573.585 117.284 573.656 116.86 573.656 116.455C573.656 116.049 573.585 115.608 573.462 115.202C573.321 114.814 573.127 114.462 572.88 114.144C572.633 113.827 572.298 113.58 571.91 113.403C571.522 113.209 571.081 113.121 570.569 113.121C570.058 113.121 569.635 113.209 569.247 113.403C568.859 113.597 568.541 113.844 568.277 114.144C568.03 114.462 567.836 114.797 567.695 115.202C567.571 115.59 567.501 116.014 567.501 116.455C567.501 116.895 567.571 117.284 567.695 117.672C567.836 118.06 568.03 118.43 568.277 118.73C568.541 119.047 568.859 119.294 569.247 119.471C569.635 119.665 570.076 119.735 570.569 119.735Z" fill="#7A5C45"/>
<path d="M523.585 130.246V135.308C524.097 134.603 524.714 134.091 525.42 133.774C526.125 133.456 526.83 133.262 527.536 133.262H529.547V135.625H527.906C527.412 135.625 526.919 135.696 526.407 135.802C525.896 135.908 525.42 136.119 524.996 136.402C524.573 136.684 524.238 137.037 523.973 137.495C523.709 137.936 523.585 138.5 523.585 139.153V141.622H520.993V127.795H530.711V130.264H523.585V130.246Z" fill="#7A5C45"/>
<path d="M538.717 130.934V133.28H535.702C535.032 133.28 534.573 133.421 534.326 133.703C534.079 133.985 533.956 134.426 533.956 135.044V141.604H531.469V134.25C531.469 133.739 531.557 133.298 531.698 132.892C531.857 132.486 532.086 132.151 532.386 131.851C532.686 131.552 533.039 131.322 533.444 131.164C533.85 131.005 534.308 130.934 534.785 130.934H538.735H538.717Z" fill="#7A5C45"/>
<path d="M541.434 129.506C541.046 129.506 540.711 129.365 540.428 129.082C540.146 128.8 540.005 128.465 540.005 128.077C540.005 127.689 540.146 127.336 540.428 127.054C540.693 126.772 541.046 126.631 541.434 126.631C541.822 126.631 542.174 126.772 542.439 127.054C542.721 127.336 542.862 127.672 542.862 128.077C542.862 128.483 542.721 128.783 542.439 129.082C542.174 129.365 541.822 129.506 541.434 129.506ZM540.199 141.604V130.934H542.686V141.604H540.199Z" fill="#7A5C45"/>
<path d="M554.291 137.901C554.291 139.241 553.903 140.229 553.109 140.899C552.315 141.569 551.187 141.904 549.723 141.904C548.911 141.904 548.206 141.763 547.571 141.481C546.936 141.199 546.389 140.811 545.948 140.299C545.508 139.788 545.155 139.206 544.926 138.5C544.696 137.795 544.573 137.054 544.573 136.261C544.573 135.291 544.714 134.479 545.014 133.774C545.314 133.086 545.702 132.522 546.178 132.063C546.654 131.605 547.201 131.269 547.8 131.022C548.4 130.793 549 130.652 549.599 130.599C550.322 130.546 550.94 130.599 551.504 130.74C552.068 130.882 552.527 131.093 552.915 131.393C553.303 131.675 553.585 132.028 553.779 132.451C553.973 132.874 554.079 133.333 554.079 133.827C554.079 134.109 554.061 134.391 554.008 134.656C553.956 134.92 553.867 135.167 553.726 135.396C553.585 135.626 553.391 135.837 553.144 136.049C552.897 136.261 552.58 136.437 552.174 136.613L547.712 138.518C548.171 139.223 548.806 139.576 549.617 139.576C550.217 139.576 550.71 139.453 551.098 139.188C551.486 138.924 551.698 138.483 551.698 137.883H554.291V137.901ZM547.165 136.278V136.507C547.165 136.507 547.165 136.649 547.183 136.737L550.851 135.15C551.063 135.061 551.24 134.955 551.381 134.832C551.522 134.709 551.592 134.515 551.592 134.268C551.592 133.844 551.416 133.509 551.063 133.245C550.71 132.98 550.305 132.857 549.829 132.857C549.511 132.857 549.194 132.927 548.876 133.051C548.559 133.174 548.277 133.368 548.012 133.65C547.747 133.915 547.553 134.268 547.395 134.709C547.236 135.15 547.165 135.679 547.165 136.296V136.278Z" fill="#7A5C45"/>
<path d="M562.527 130.634C563.074 130.634 563.585 130.723 564.079 130.917C564.573 131.111 565.014 131.375 565.402 131.746C565.79 132.116 566.09 132.575 566.301 133.121C566.53 133.668 566.636 134.321 566.636 135.061V141.622H564.167V135.502C564.167 135.061 564.097 134.691 563.956 134.356C563.814 134.021 563.638 133.756 563.409 133.527C563.179 133.298 562.915 133.139 562.598 133.015C562.298 132.91 561.98 132.839 561.645 132.839C561.292 132.839 560.94 132.91 560.587 133.051C560.234 133.192 559.934 133.403 559.67 133.686C559.405 133.968 559.194 134.32 559.035 134.726C558.876 135.132 558.788 135.608 558.788 136.119V141.587H556.301V130.899H558.788V133.104C559.194 132.31 559.723 131.693 560.393 131.252C561.045 130.811 561.769 130.581 562.527 130.581V130.634Z" fill="#7A5C45"/>
<path d="M579.758 126.631V141.604H577.271V139.664C576.936 140.299 576.425 140.828 575.772 141.252C575.12 141.675 574.344 141.887 573.444 141.887C572.598 141.887 571.874 141.728 571.24 141.41C570.622 141.093 570.093 140.652 569.67 140.141C569.247 139.611 568.929 139.012 568.717 138.324C568.506 137.654 568.4 136.948 568.4 136.243C568.4 135.537 568.506 134.85 568.717 134.162C568.929 133.474 569.247 132.874 569.67 132.363C570.093 131.834 570.622 131.41 571.24 131.093C571.874 130.776 572.598 130.617 573.444 130.617C574.344 130.617 575.12 130.828 575.772 131.252C576.425 131.675 576.918 132.204 577.271 132.839V126.613H579.758V126.631ZM574.097 139.664C574.643 139.664 575.102 139.558 575.507 139.364C575.913 139.17 576.231 138.906 576.513 138.589C576.777 138.271 576.971 137.901 577.095 137.495C577.218 137.089 577.289 136.684 577.289 136.278C577.289 135.872 577.218 135.467 577.095 135.061C576.971 134.656 576.777 134.303 576.513 133.968C576.248 133.65 575.913 133.386 575.507 133.192C575.102 132.998 574.626 132.892 574.097 132.892C573.426 132.892 572.862 133.051 572.403 133.403C571.945 133.738 571.61 134.162 571.381 134.656C571.151 135.167 571.046 135.696 571.046 136.278C571.046 136.86 571.151 137.407 571.381 137.901C571.61 138.395 571.945 138.818 572.403 139.153C572.862 139.488 573.426 139.664 574.097 139.664Z" fill="#7A5C45"/>
<path d="M582.156 141.604V126.631H584.643V141.604H582.156Z" fill="#7A5C45"/>
<path d="M595.19 130.934H597.765L594.326 143.509C594.026 144.585 593.532 145.361 592.88 145.837C592.227 146.313 591.328 146.543 590.217 146.543C589.776 146.543 589.317 146.49 588.859 146.402C588.4 146.296 587.924 146.155 587.483 145.978L587.871 143.739C588.329 143.827 588.717 143.897 589.035 143.933C589.352 143.968 589.67 143.985 589.97 143.985C590.64 143.985 591.116 143.844 591.416 143.58C591.716 143.315 591.91 142.962 592.016 142.539L592.28 141.604H591.292C590.375 141.604 589.67 141.358 589.123 140.881C588.594 140.405 588.259 139.823 588.118 139.135L586.266 130.934H588.806L590.393 137.883C590.481 138.271 590.675 138.589 590.957 138.853C591.239 139.118 591.575 139.241 591.963 139.241H592.915L595.208 130.917L595.19 130.934Z" fill="#7A5C45"/>
<g opacity="0.5">
<path d="M559.053 76.6311C549.194 76.6311 541.874 70.4934 537.818 65.9432V73.2097C537.818 74.2855 536.936 75.1673 535.86 75.1673C534.785 75.1673 533.903 74.2855 533.903 73.2097V60.2113C533.903 60.2113 533.903 60.0702 533.903 59.9997C533.92 59.7175 534.009 59.453 534.15 59.2237C534.273 58.9945 534.467 58.7829 534.696 58.6065C534.89 58.4654 535.102 58.3595 535.331 58.2889C535.508 58.236 535.702 58.2009 535.878 58.2185H547.642C548.718 58.2185 549.599 59.1004 549.599 60.1762C549.599 61.252 548.718 62.1338 547.642 62.1338H539.723C543.021 66.1197 549.864 72.7158 559.035 72.7158C572.333 72.7158 583.162 61.8868 583.162 48.5888C583.162 47.513 584.044 46.6312 585.12 46.6312C586.195 46.6312 587.077 47.513 587.077 48.5888C587.077 64.0385 574.502 76.6311 559.035 76.6311H559.053Z" fill="white"/>
<path d="M532.968 50.5464C531.892 50.5464 531.01 49.6646 531.01 48.5888C531.01 33.1391 543.585 20.5465 559.053 20.5465C570.922 20.5465 578.929 26.7899 583.18 31.3401V23.9505C583.18 22.8746 584.061 21.9928 585.137 21.9928C586.213 21.9928 587.095 22.8746 587.095 23.9505V36.9487C587.095 36.9487 587.095 37.0898 587.095 37.1779C587.077 37.4601 586.989 37.7246 586.848 37.9539C586.707 38.1831 586.53 38.3949 586.301 38.5713C586.107 38.7124 585.895 38.8181 585.666 38.871C585.49 38.9239 585.296 38.9592 585.12 38.9416H573.568C572.492 38.9416 571.61 38.0598 571.61 36.984C571.61 35.9081 572.492 35.0263 573.568 35.0263H581.204C577.73 31.0404 570.305 24.4443 559.053 24.4443C545.755 24.4443 534.926 35.2731 534.926 48.5711C534.926 49.647 534.044 50.5288 532.968 50.5288V50.5464Z" fill="white"/>
</g>
<path d="M534.185 56.1726C534.185 56.4195 534.115 56.6135 533.938 56.7546C533.868 56.8075 533.797 56.8429 533.727 56.8781C532.175 57.3543 531.522 58.4829 531.487 60.0173C531.487 60.1937 531.487 60.3701 531.469 60.5465C531.434 60.9345 531.205 61.2167 530.887 61.2167C530.499 61.2167 530.27 61.0226 530.199 60.6522C530.093 60.1936 529.917 59.7704 529.705 59.3471C529.194 58.3065 528.33 57.8481 527.219 57.7423C526.725 57.707 526.46 57.5129 526.443 57.1778C526.425 56.7722 526.654 56.5607 527.025 56.4372C528.524 55.9434 529.106 54.8146 529.159 53.3332C529.159 53.1392 529.159 52.945 529.176 52.751C529.212 52.4159 529.388 52.169 529.723 52.1161C530.093 52.0632 530.323 52.2572 530.446 52.5923C530.57 52.9451 530.693 53.2801 530.816 53.6328C531.257 54.9027 532.21 55.4672 533.497 55.573C533.885 55.6083 534.15 55.767 534.238 56.1373L534.185 56.1726Z" fill="white"/>
<path d="M594.643 40.4054C594.643 40.6524 594.573 40.8465 594.397 40.9876C594.326 41.0405 594.255 41.0757 594.185 41.111C592.633 41.5871 591.98 42.7159 591.945 44.2503C591.945 44.4267 591.945 44.6029 591.927 44.7793C591.892 45.1673 591.663 45.4495 591.345 45.4495C590.957 45.4495 590.728 45.2556 590.658 44.8852C590.552 44.4267 590.375 44.0034 590.164 43.5801C589.652 42.5396 588.788 42.081 587.677 41.9751C587.183 41.9399 586.919 41.746 586.901 41.4109C586.883 41.0052 587.113 40.7935 587.483 40.67C588.982 40.1762 589.564 39.0475 589.617 37.566C589.617 37.372 589.617 37.178 589.635 36.984C589.67 36.6489 589.846 36.4021 590.181 36.3492C590.552 36.2962 590.781 36.4903 590.905 36.8254C591.028 37.1781 591.151 37.5131 591.275 37.8659C591.716 39.1357 592.668 39.7 593.956 39.8059C594.344 39.8411 594.608 39.9998 594.696 40.3701L594.643 40.4054Z" fill="white"/>
<path d="M54.7728 96.7369C53.4677 96.7369 52.1802 96.4371 51.0162 95.8727C50.4165 95.5729 49.7464 95.4318 49.0938 95.4318C48.4413 95.4318 47.7709 95.5905 47.1713 95.8903C46.0073 96.4723 44.7022 96.7722 43.4147 96.7722C41.263 96.7722 39.2173 95.9785 37.63 94.5323C36.8188 93.7915 35.7605 93.3859 34.667 93.3859C34.4201 93.3859 34.1731 93.4036 33.9262 93.4565C33.45 93.5447 32.9563 93.5798 32.4801 93.5798C29.4995 93.5798 26.6952 92.0103 25.1608 89.4706C24.4554 88.3242 23.2561 87.5481 21.9157 87.3894C18.3884 86.9837 15.5313 84.5147 14.6142 81.0932C14.2614 79.7881 13.3268 78.7122 12.0746 78.1831C8.81181 76.8074 6.76581 73.6329 6.854 70.0879C6.88927 68.7476 6.28978 67.4248 5.24922 66.5783C2.4979 64.3384 1.43962 60.7053 2.51545 57.3367C2.9211 56.0492 2.72697 54.6206 1.95096 53.5271C-0.0596134 50.5994 -0.0594154 46.8251 1.93352 43.8974C2.6919 42.7863 2.88579 41.3578 2.48015 40.0704C1.38668 36.7018 2.44493 33.0686 5.1786 30.8288C6.21916 29.9822 6.81885 28.6595 6.76594 27.3191C6.66012 23.7742 8.70587 20.5994 11.951 19.2061C13.1856 18.677 14.138 17.5837 14.4731 16.2786C15.3726 12.8571 18.2297 10.3701 21.7394 9.94687C23.0798 9.78814 24.279 9.01223 24.9845 7.84822C26.5189 5.2909 29.3231 3.72129 32.2861 3.70365C32.7623 3.70365 33.256 3.73883 33.7322 3.82701C33.9791 3.86229 34.2261 3.89763 34.473 3.89763C35.5665 3.89763 36.6248 3.49193 37.4361 2.73355C39.0057 1.28735 41.069 0.47601 43.2031 0.47601C44.5082 0.47601 45.7957 0.776031 46.9597 1.3404C47.5593 1.64023 48.2297 1.78132 48.8822 1.78132C49.5348 1.78132 50.2049 1.62257 50.8046 1.32275C51.9686 0.740741 53.2737 0.440918 54.5612 0.440918C56.7128 0.440918 58.7587 1.23439 60.346 2.68059C61.1573 3.42133 62.2154 3.82701 63.3089 3.82701C63.5558 3.82701 63.8028 3.80952 64.0497 3.75661C64.5259 3.66843 65.0196 3.63304 65.4958 3.63304C68.4764 3.63304 71.2806 5.20262 72.815 7.74229C73.5205 8.88867 74.7197 9.66478 76.0601 9.82351C79.5874 10.2292 82.4446 12.6982 83.3617 16.1197C83.7144 17.4248 84.6493 18.5007 85.9015 19.0298C89.1643 20.4054 91.21 23.5802 91.1219 27.1251C91.0866 28.4655 91.6863 29.7883 92.7269 30.6348C95.4782 32.8747 96.5362 36.5078 95.4604 39.8764C95.0548 41.1639 95.2489 42.5923 96.0072 43.6857C98.0178 46.6134 98.0178 50.3878 96.0249 53.3155C95.2665 54.4266 95.0724 55.855 95.4781 57.1425C96.5715 60.5111 95.5133 64.1442 92.7796 66.3841C91.739 67.2306 91.1395 68.5536 91.1748 69.894C91.2806 73.4389 89.2347 76.6135 85.9895 78.0068C84.755 78.5359 83.8027 79.6292 83.4676 80.9343C82.5682 84.3558 79.711 86.8427 76.2013 87.266C74.861 87.4247 73.6615 88.2006 72.956 89.3647C71.4217 91.922 68.6176 93.4916 65.6547 93.5092C65.1785 93.5092 64.6845 93.474 64.2083 93.3859C63.9614 93.3506 63.7144 93.3152 63.4675 93.3152C62.3741 93.3152 61.316 93.7209 60.5047 94.4793C58.935 95.9255 56.8715 96.7369 54.7375 96.7369H54.7728Z" fill="url(#paint4_linear_1_47)" stroke="#7A5C45" stroke-width="0.881831" stroke-miterlimit="10"/>
<path d="M12.004 107.936C13.1503 107.936 14.1381 108.13 14.9494 108.5C15.7783 108.888 16.4483 109.4 16.9774 110.052C17.5065 110.687 17.8946 111.428 18.1415 112.257C18.3884 113.086 18.5118 113.95 18.5118 114.85C18.5118 115.749 18.3884 116.613 18.1415 117.442C17.8946 118.271 17.5065 119.012 16.9774 119.647C16.4483 120.299 15.7783 120.811 14.9494 121.199C14.1204 121.587 13.1503 121.763 12.004 121.763H6.27206V107.936H12.004ZM11.7041 119.294C12.4624 119.294 13.0799 119.188 13.609 118.977C14.1204 118.747 14.5613 118.448 14.8787 118.06C15.1962 117.671 15.4432 117.195 15.5843 116.648C15.7253 116.102 15.7959 115.52 15.7959 114.867C15.7959 114.215 15.7253 113.615 15.5843 113.051C15.4432 112.504 15.1962 112.045 14.8787 111.64C14.5613 111.234 14.1204 110.934 13.609 110.723C13.0975 110.511 12.4624 110.405 11.7041 110.405H8.88225V119.294H11.7041Z" fill="#7A5C45"/>
<path d="M29.6936 118.06C29.6936 119.4 29.3055 120.388 28.5118 121.058C27.7182 121.728 26.5894 122.063 25.1255 122.063C24.3142 122.063 23.6088 121.922 22.9739 121.64C22.339 121.358 21.7922 120.97 21.3513 120.458C20.9103 119.947 20.5577 119.365 20.3284 118.659C20.0991 117.954 19.9758 117.213 19.9758 116.42C19.9758 115.45 20.1169 114.638 20.4167 113.933C20.7165 113.245 21.1044 112.681 21.5805 112.222C22.0567 111.763 22.6035 111.428 23.2032 111.181C23.8028 110.952 24.4025 110.811 25.0022 110.758C25.7253 110.705 26.3425 110.758 26.9068 110.899C27.4712 111.04 27.9299 111.252 28.3179 111.552C28.7059 111.834 28.988 112.187 29.182 112.61C29.376 113.033 29.4819 113.492 29.4819 113.986C29.4819 114.268 29.4642 114.55 29.4113 114.815C29.3584 115.079 29.2702 115.326 29.1291 115.555C28.988 115.784 28.7941 115.996 28.5471 116.208C28.3002 116.419 27.9827 116.596 27.577 116.772L23.1149 118.677C23.5735 119.382 24.2085 119.735 25.0198 119.735C25.6195 119.735 26.1132 119.612 26.5012 119.347C26.8892 119.082 27.1008 118.642 27.1008 118.042H29.6936V118.06ZM22.5683 116.437V116.666C22.5683 116.666 22.5683 116.807 22.586 116.896L26.2543 115.308C26.4659 115.22 26.6424 115.114 26.7835 114.991C26.9246 114.867 26.9951 114.673 26.9951 114.427C26.9951 114.003 26.8187 113.668 26.4659 113.404C26.1132 113.139 25.7076 113.016 25.2314 113.016C24.914 113.016 24.5965 113.086 24.279 113.21C23.9615 113.333 23.6794 113.527 23.4148 113.809C23.1503 114.074 22.9563 114.427 22.7976 114.867C22.6389 115.308 22.5683 115.837 22.5683 116.455V116.437Z" fill="#7A5C45"/>
<path d="M31.6865 121.763V106.79H34.1731V121.763H31.6865Z" fill="#7A5C45"/>
<path d="M37.7711 109.664C37.3831 109.664 37.0481 109.523 36.7659 109.241C36.4837 108.959 36.3424 108.624 36.3424 108.236C36.3424 107.848 36.4837 107.495 36.7659 107.213C37.0304 106.931 37.3831 106.79 37.7711 106.79C38.1591 106.79 38.5117 106.931 38.7763 107.213C39.0584 107.495 39.1997 107.83 39.1997 108.236C39.1997 108.642 39.0584 108.941 38.7763 109.241C38.5117 109.523 38.1591 109.664 37.7711 109.664ZM36.5366 121.763V111.093H39.0232V121.763H36.5366Z" fill="#7A5C45"/>
<path d="M45.9898 119.612C46.6247 119.612 47.1185 119.488 47.5065 119.224C47.8769 118.959 48.0708 118.518 48.0708 117.919H50.6635C50.6635 118.571 50.5576 119.171 50.3283 119.682C50.0991 120.194 49.7815 120.635 49.3759 120.987C48.9702 121.34 48.4941 121.622 47.9298 121.798C47.383 121.993 46.7657 122.081 46.0955 122.081C45.2842 122.081 44.5435 121.94 43.9086 121.657C43.2737 121.375 42.7271 120.97 42.2861 120.476C41.8452 119.964 41.51 119.365 41.2807 118.677C41.0515 117.989 40.9281 117.248 40.9281 116.437C40.9281 115.626 41.0338 114.867 41.2807 114.197C41.5276 113.527 41.8452 112.91 42.2861 112.416C42.7271 111.922 43.2737 111.534 43.9086 111.234C44.5435 110.952 45.2666 110.811 46.0955 110.811C46.7657 110.811 47.383 110.899 47.9298 111.093C48.4941 111.287 48.9702 111.552 49.3759 111.904C49.7815 112.257 50.0991 112.698 50.3283 113.209C50.5576 113.721 50.6635 114.303 50.6635 114.955H48.0708C48.0708 114.356 47.8769 113.915 47.5065 113.65C47.1361 113.386 46.6247 113.262 45.9898 113.262C45.2138 113.262 44.6141 113.527 44.1732 114.056C43.7322 114.585 43.5206 115.379 43.5206 116.437C43.5206 117.495 43.7322 118.307 44.1732 118.836C44.6141 119.365 45.2138 119.629 45.9898 119.629V119.612Z" fill="#7A5C45"/>
<path d="M53.8556 109.664C53.4676 109.664 53.1326 109.523 52.8504 109.241C52.5683 108.959 52.4272 108.624 52.4272 108.236C52.4272 107.848 52.5683 107.495 52.8504 107.213C53.115 106.931 53.4676 106.79 53.8556 106.79C54.2436 106.79 54.5963 106.931 54.8608 107.213C55.143 107.495 55.2843 107.83 55.2843 108.236C55.2843 108.642 55.143 108.941 54.8608 109.241C54.5963 109.523 54.2436 109.664 53.8556 109.664ZM52.6035 121.763V111.093H55.0901V121.763H52.6035Z" fill="#7A5C45"/>
<path d="M62.5683 110.793C63.3795 110.793 64.1378 110.934 64.8256 111.234C65.5134 111.534 66.1131 111.94 66.6069 112.451C67.1184 112.963 67.5064 113.562 67.7886 114.25C68.0708 114.938 68.2119 115.661 68.2119 116.437C68.2119 117.213 68.0708 117.936 67.7886 118.624C67.5064 119.312 67.1007 119.911 66.6069 120.423C66.0954 120.934 65.5134 121.34 64.8256 121.622C64.1378 121.922 63.3972 122.063 62.5683 122.063C61.7393 122.063 61.0162 121.922 60.3284 121.622C59.6405 121.322 59.0409 120.934 58.5471 120.423C58.0356 119.911 57.6475 119.33 57.3653 118.624C57.0831 117.936 56.9421 117.213 56.9421 116.437C56.9421 115.661 57.0831 114.938 57.3653 114.25C57.6475 113.562 58.0532 112.963 58.5471 112.451C59.0585 111.94 59.6405 111.534 60.3284 111.234C61.0162 110.934 61.757 110.793 62.5683 110.793ZM62.5683 119.735C63.0621 119.735 63.5204 119.647 63.9084 119.471C64.2964 119.277 64.614 119.03 64.8785 118.73C65.1431 118.43 65.337 118.06 65.4605 117.672C65.5839 117.284 65.6547 116.86 65.6547 116.455C65.6547 116.049 65.5839 115.608 65.4605 115.202C65.3194 114.814 65.1255 114.462 64.8785 114.144C64.6316 113.827 64.2964 113.58 63.9084 113.403C63.5204 113.209 63.0797 113.121 62.5683 113.121C62.0568 113.121 61.6335 113.209 61.2455 113.403C60.8575 113.597 60.54 113.844 60.2754 114.144C60.0285 114.462 59.8346 114.797 59.6935 115.202C59.57 115.59 59.4993 116.014 59.4993 116.455C59.4993 116.895 59.57 117.284 59.6935 117.672C59.8346 118.06 60.0285 118.43 60.2754 118.73C60.54 119.047 60.8575 119.294 61.2455 119.471C61.6335 119.665 62.0744 119.735 62.5683 119.735Z" fill="#7A5C45"/>
<path d="M80.2576 111.111V121.781H77.7885V119.594C77.3652 120.388 76.8186 120.987 76.166 121.428C75.5135 121.869 74.7904 122.081 74.0321 122.081C73.4853 122.081 72.9739 121.992 72.48 121.798C71.9862 121.604 71.5453 121.34 71.1573 120.97C70.7693 120.599 70.4694 120.141 70.2578 119.594C70.0285 119.03 69.9226 118.395 69.9226 117.672V111.111H72.4094V117.231C72.4094 117.672 72.48 118.042 72.621 118.359C72.7621 118.677 72.9384 118.959 73.1677 119.171C73.3969 119.382 73.6616 119.559 73.9614 119.682C74.2613 119.788 74.5611 119.858 74.8962 119.858C75.2666 119.858 75.6193 119.788 75.972 119.629C76.3071 119.488 76.6246 119.277 76.8892 118.994C77.1537 118.73 77.383 118.377 77.5417 117.971C77.7005 117.566 77.7885 117.09 77.7885 116.56V111.093H80.2576V111.111Z" fill="#7A5C45"/>
<path d="M84.614 114.056C84.614 114.409 84.7549 114.673 85.0724 114.85C85.3722 115.026 85.7603 115.167 86.2188 115.273C86.6774 115.379 87.1714 115.485 87.7005 115.573C88.2296 115.679 88.7233 115.837 89.1819 116.049C89.6404 116.278 90.0285 116.596 90.3283 116.984C90.6281 117.372 90.7869 117.936 90.7869 118.659C90.7869 119.841 90.3988 120.687 89.6228 121.234C88.8468 121.781 87.8062 122.063 86.5011 122.063C85.9543 122.063 85.4075 121.975 84.8961 121.798C84.3846 121.622 83.926 121.375 83.5557 121.075C83.1677 120.758 82.8678 120.37 82.6385 119.911C82.4093 119.453 82.2859 118.941 82.2859 118.377H84.5964C84.5964 118.642 84.6669 118.888 84.7904 119.1C84.9138 119.294 85.09 119.47 85.3017 119.612C85.5133 119.735 85.7426 119.841 86.0072 119.894C86.2717 119.964 86.5187 119.982 86.7657 119.982C87.2066 119.982 87.6121 119.894 87.9472 119.735C88.2823 119.576 88.4587 119.329 88.4587 119.03C88.4587 118.695 88.3176 118.43 88.0178 118.253C87.718 118.077 87.3476 117.936 86.889 117.813C86.4305 117.689 85.9544 117.583 85.4253 117.46C84.8962 117.336 84.4198 117.16 83.9613 116.913C83.5027 116.666 83.1326 116.331 82.8327 115.908C82.5329 115.485 82.3918 114.92 82.3918 114.215C82.3918 113.633 82.4975 113.121 82.7092 112.698C82.9208 112.257 83.2206 111.904 83.591 111.622C83.9614 111.34 84.3846 111.128 84.8784 110.987C85.3722 110.846 85.8837 110.776 86.4305 110.776C87.8237 110.776 88.8643 111.093 89.5345 111.728C90.2047 112.363 90.5399 113.245 90.5399 114.391H88.3353C88.3353 114.162 88.2823 113.95 88.1588 113.774C88.0354 113.598 87.8945 113.439 87.7005 113.333C87.5065 113.21 87.2946 113.121 87.0477 113.068C86.8008 113.016 86.554 112.98 86.3071 112.98C85.8662 112.98 85.4781 113.068 85.1254 113.245C84.7726 113.421 84.614 113.686 84.614 114.056Z" fill="#7A5C45"/>
<path d="M24.4906 127.777L18.8823 141.604H16.3955L10.7869 127.777H13.5737L17.6476 137.83L21.7218 127.777H24.5083H24.4906Z" fill="#7A5C45"/>
<path d="M26.9951 129.506C26.6071 129.506 26.2719 129.365 25.9897 129.082C25.7075 128.8 25.5664 128.465 25.5664 128.077C25.5664 127.689 25.7075 127.336 25.9897 127.054C26.2542 126.772 26.6071 126.631 26.9951 126.631C27.3831 126.631 27.7358 126.772 28.0003 127.054C28.2825 127.336 28.4236 127.672 28.4236 128.077C28.4236 128.483 28.2825 128.783 28.0003 129.082C27.7358 129.365 27.3831 129.506 26.9951 129.506ZM25.743 141.622V130.952H28.2296V141.622H25.743Z" fill="#7A5C45"/>
<path d="M35.4959 139.365V141.622H33.3266C32.9915 141.622 32.6741 141.587 32.3214 141.499C31.9863 141.411 31.6865 141.269 31.4219 141.058C31.1574 140.846 30.9281 140.581 30.7694 140.246C30.6106 139.911 30.5224 139.506 30.5224 139.03V128.924H33.0093V130.952H35.1785V133.104H33.0093V138.218C33.0093 138.606 33.115 138.888 33.3266 139.082C33.5382 139.276 33.8204 139.365 34.1555 139.365H35.4959Z" fill="#7A5C45"/>
<path d="M42.1096 130.634C42.9385 130.634 43.697 130.776 44.3848 131.058C45.0726 131.322 45.6723 131.728 46.1661 132.222C46.6599 132.716 47.048 133.315 47.3125 134.003C47.5947 134.691 47.7358 135.449 47.7358 136.278V141.64H45.249V139.823C45.1255 140.088 44.9316 140.37 44.7023 140.617C44.4731 140.881 44.2084 141.093 43.9262 141.287C43.644 141.481 43.3089 141.64 42.9561 141.746C42.6034 141.851 42.2332 141.922 41.8276 141.922C41.0692 141.922 40.3636 141.781 39.711 141.516C39.0761 141.252 38.5119 140.864 38.0533 140.37C37.5948 139.876 37.242 139.276 36.9775 138.589C36.7129 137.883 36.5893 137.125 36.5893 136.278C36.5893 135.484 36.7129 134.744 36.9775 134.074C37.242 133.403 37.6124 132.786 38.0886 132.292C38.5648 131.781 39.1468 131.393 39.8346 131.093C40.5224 130.811 41.2807 130.652 42.1273 130.652L42.1096 130.634ZM42.1096 139.435C42.5858 139.435 43.009 139.347 43.397 139.171C43.785 138.994 44.1026 138.765 44.3848 138.465C44.667 138.183 44.8786 137.83 45.0197 137.46C45.1608 137.072 45.249 136.666 45.249 136.261C45.249 135.308 44.9668 134.55 44.3848 133.968C43.8028 133.386 43.0443 133.104 42.1096 133.104C41.5981 133.104 41.1749 133.192 40.8045 133.368C40.4341 133.545 40.1343 133.774 39.905 134.074C39.6581 134.373 39.4819 134.709 39.376 135.097C39.2702 135.485 39.1997 135.873 39.1997 136.261C39.1997 136.649 39.2702 137.054 39.376 137.425C39.4819 137.795 39.6757 138.148 39.905 138.448C40.1343 138.747 40.4341 138.977 40.8045 139.171C41.1749 139.365 41.6158 139.453 42.1096 139.453V139.435Z" fill="#7A5C45"/>
<path d="M63.5558 130.634C64.0496 130.634 64.5434 130.74 65.0019 130.917C65.4605 131.093 65.8839 131.393 66.2543 131.763C66.607 132.134 66.9068 132.592 67.1184 133.139C67.3301 133.686 67.4358 134.321 67.4358 135.061V141.622H64.9492V135.59C64.9492 134.779 64.7375 134.127 64.2966 133.615C63.8557 133.104 63.256 132.839 62.4977 132.839C61.7393 132.839 61.1219 133.121 60.6281 133.703C60.1342 134.285 59.8875 135.097 59.8875 136.137V141.604H57.4006V135.573C57.4006 134.762 57.189 134.109 56.7657 133.597C56.3425 133.086 55.7428 132.821 54.9668 132.821C54.1908 132.821 53.591 133.104 53.0972 133.686C52.6034 134.268 52.3566 135.079 52.3566 136.119V141.587H49.8698V130.899H52.3566V132.91C52.7799 132.116 53.309 131.534 53.9616 131.164C54.6141 130.793 55.3018 130.599 56.0073 130.599C56.3953 130.599 56.7833 130.652 57.1537 130.775C57.5241 130.899 57.8768 131.075 58.2119 131.287C58.5293 131.516 58.8115 131.798 59.076 132.151C59.3229 132.504 59.5171 132.91 59.6758 133.368C60.0815 132.416 60.6458 131.728 61.3512 131.269C62.0567 130.811 62.7974 130.581 63.5735 130.581L63.5558 130.634Z" fill="#7A5C45"/>
<path d="M70.9103 129.506C70.5223 129.506 70.1871 129.365 69.9049 129.082C69.6227 128.8 69.4817 128.465 69.4817 128.077C69.4817 127.689 69.6227 127.336 69.9049 127.054C70.1695 126.772 70.5223 126.631 70.9103 126.631C71.2984 126.631 71.651 126.772 71.9155 127.054C72.1977 127.336 72.3388 127.672 72.3388 128.077C72.3388 128.483 72.1977 128.783 71.9155 129.082C71.651 129.365 71.2984 129.506 70.9103 129.506ZM69.6757 141.622V130.952H72.1625V141.622H69.6757Z" fill="#7A5C45"/>
<path d="M80.7162 130.634C81.2629 130.634 81.7744 130.723 82.2682 130.917C82.7621 131.111 83.203 131.375 83.591 131.746C83.979 132.116 84.2788 132.575 84.4905 133.121C84.7197 133.668 84.8257 134.321 84.8257 135.061V141.622H82.3565V135.502C82.3565 135.061 82.286 134.691 82.1449 134.356C82.0038 134.021 81.8273 133.756 81.598 133.527C81.3688 133.298 81.1043 133.139 80.7868 133.015C80.487 132.91 80.1695 132.839 79.8344 132.839C79.4816 132.839 79.1289 132.91 78.7762 133.051C78.4235 133.192 78.1236 133.403 77.8591 133.686C77.5945 133.968 77.3829 134.32 77.2242 134.726C77.0655 135.132 76.9772 135.608 76.9772 136.119V141.587H74.4904V130.899H76.9772V133.104C77.3829 132.31 77.912 131.693 78.5822 131.252C79.2348 130.811 79.9578 130.581 80.7162 130.581V130.634Z" fill="#7A5C45"/>
<path opacity="0.5" d="M71.8099 41.1285C69.3231 40.9874 67.189 42.9276 67.0479 45.432C66.6952 52.2397 61.2455 62.8744 48.1238 62.8744C47.9475 62.8744 47.7712 62.8744 47.5772 62.8744C32.8153 62.5569 30.0111 50.5112 29.482 45.3437C29.2351 42.8569 27.0128 41.0226 24.526 41.2872C22.0392 41.5341 20.2226 43.7564 20.4695 46.2432C21.6864 58.4124 29.4113 71.534 47.383 71.9396C47.6299 71.9396 47.8769 71.9396 48.1238 71.9396C65.4254 71.9396 75.4429 58.624 76.0955 45.908C76.2189 43.4036 74.2967 41.2696 71.7923 41.1462L71.8099 41.1285Z" fill="white"/>
<path opacity="0.5" d="M31.1044 36.5783C33.0973 38.8005 36.3249 39.206 37.7711 39.0826C37.9827 39.0826 38.2649 38.9417 38.406 38.8006C39.4642 37.8129 41.2985 35.1145 40.9458 32.1515C40.8752 31.5519 40.7164 30.9345 40.4342 30.3172C39.7111 28.7123 38.1943 28.1831 36.607 28.9062C35.6723 29.3295 35.0197 30.5642 34.808 31.5166C33.9615 31.0581 32.4977 30.7405 31.563 31.1638C29.9757 31.8869 29.3408 33.4214 30.0639 35.0263C30.3461 35.6436 30.6988 36.1725 31.1044 36.6311V36.5783Z" fill="white"/>
<path opacity="0.5" d="M58.9703 39.0826C60.4165 39.2237 63.6441 38.8182 65.637 36.5784C66.0427 36.1198 66.3954 35.6083 66.6775 34.9734C67.4006 33.3685 66.7658 31.834 65.1785 31.1109C64.2437 30.6876 62.7797 31.0052 61.9332 31.4637C61.7215 30.529 61.0692 29.2944 60.1344 28.8535C58.5471 28.1304 57.0303 28.6594 56.3072 30.2643C56.025 30.8816 55.8662 31.499 55.7957 32.0986C55.4429 35.0616 57.2772 37.76 58.3354 38.7477C58.4765 38.8887 58.7764 39.0123 58.988 39.0299L58.9703 39.0826Z" fill="white"/>
<path d="M83.644 39.5412C83.644 39.7352 83.5381 39.8939 83.3794 39.9821C83.3265 40.0174 83.256 40.0351 83.2031 40.0527C81.9156 40.2644 81.2808 41.0933 81.0868 42.3103C81.0691 42.4514 81.0338 42.5924 81.0161 42.7335C80.9456 43.0334 80.7339 43.245 80.487 43.2098C80.1871 43.1745 80.0284 42.9804 79.9931 42.6806C79.9578 42.3102 79.8522 41.9575 79.7287 41.6048C79.4289 40.7229 78.7939 40.2644 77.9121 40.0704C77.5241 39.9822 77.3299 39.8058 77.3476 39.5412C77.3652 39.2061 77.577 39.0828 77.8944 39.0122C79.129 38.7653 79.711 37.954 79.905 36.7723C79.9227 36.6313 79.9578 36.4725 79.9931 36.3138C80.046 36.0492 80.2224 35.8729 80.487 35.8729C80.7868 35.8729 80.9456 36.0492 81.0161 36.3314C81.0867 36.6136 81.1396 36.9134 81.1925 37.1956C81.4217 38.2538 82.1095 38.8006 83.1148 39.0122C83.4146 39.0828 83.6087 39.2237 83.644 39.5412Z" fill="white"/>
<path d="M31.122 78.624C31.122 78.3595 31.2279 78.1479 31.4572 78.0068C31.5278 77.9539 31.616 77.9185 31.7042 77.9009C33.4325 77.5305 34.2437 76.3842 34.4377 74.7087C34.4553 74.5147 34.4907 74.3206 34.5083 74.1442C34.5789 73.721 34.8434 73.4388 35.1962 73.474C35.6018 73.5093 35.8309 73.7562 35.9015 74.1442C35.972 74.6381 36.1309 75.1144 36.3073 75.5906C36.7658 76.7546 37.6652 77.3542 38.8469 77.5659C39.376 77.654 39.6406 77.8833 39.6406 78.2537C39.6406 78.6946 39.3584 78.8885 38.9351 78.9943C37.2773 79.4 36.5366 80.5464 36.3249 82.1513C36.3073 82.363 36.2719 82.5569 36.2367 82.7686C36.1661 83.1213 35.9545 83.3858 35.5841 83.4035C35.1961 83.4035 34.9491 83.1919 34.8433 82.8215C34.7375 82.4335 34.6494 82.0455 34.5436 81.6575C34.1733 80.2465 33.2032 79.5411 31.8452 79.2942C31.4219 79.206 31.1572 79.0296 31.0867 78.6064L31.122 78.624Z" fill="white"/>
<path d="M20.4694 65.2556C20.4871 64.8853 20.6282 64.6205 20.9456 64.4265C21.0515 64.356 21.175 64.3208 21.2809 64.2855C23.6442 63.8446 24.7904 62.2925 25.1079 59.9997C25.1431 59.7352 25.1785 59.4707 25.2314 59.2238C25.3373 58.6595 25.7251 58.2714 26.2013 58.3243C26.7657 58.3772 27.0656 58.7124 27.1361 59.2768C27.2067 59.9646 27.4184 60.6172 27.6653 61.2697C28.2473 62.8923 29.4641 63.7211 31.0867 64.0562C31.8098 64.1973 32.1627 64.5149 32.1451 65.0087C32.1098 65.6083 31.7393 65.8728 31.175 65.9962C28.8822 66.4901 27.8415 68.0421 27.5241 70.2467C27.4888 70.5289 27.4536 70.8111 27.4007 71.0932C27.3125 71.5871 26.9951 71.9221 26.5012 71.9398C25.9545 71.9398 25.6371 71.6224 25.5137 71.1285C25.3902 70.5994 25.2666 70.0527 25.1432 69.5236C24.6846 67.5835 23.3796 66.5782 21.5101 66.2255C20.9458 66.1021 20.5929 65.8377 20.5047 65.2733L20.4694 65.2556Z" fill="white"/>
<defs>
<linearGradient id="paint0_linear_1_47" x1="190.176" y1="38.2582" x2="237.1" y2="126.874" gradientUnits="userSpaceOnUse">
<stop stop-color="#FEAD0B"/>
<stop offset="1" stop-color="#F67FB3"/>
</linearGradient>
<linearGradient id="paint1_linear_1_47" x1="360.15" y1="38.2582" x2="407.075" y2="126.874" gradientUnits="userSpaceOnUse">
<stop stop-color="#FEAD0B"/>
<stop offset="1" stop-color="#F67FB3"/>
</linearGradient>
<linearGradient id="paint2_linear_1_47" x1="377.429" y1="45.9452" x2="395.545" y2="81.3497" gradientUnits="userSpaceOnUse">
<stop stop-color="#FEAD0B"/>
<stop offset="1" stop-color="#F67FB3"/>
</linearGradient>
<linearGradient id="paint3_linear_1_47" x1="530.125" y1="38.2582" x2="577.049" y2="126.874" gradientUnits="userSpaceOnUse">
<stop stop-color="#FEAD0B"/>
<stop offset="1" stop-color="#F67FB3"/>
</linearGradient>
<linearGradient id="paint4_linear_1_47" x1="20.2012" y1="38.2582" x2="67.1254" y2="126.874" gradientUnits="userSpaceOnUse">
<stop stop-color="#FEAD0B"/>
<stop offset="1" stop-color="#F67FB3"/>
</linearGradient>
</defs>
</svg>
